<?xml version="1.0" encoding="utf-8"?>
<!-- Generator: Adobe Illustrator 26.4.1, SVG Export Plug-In . SVG Version: 6.00 Build 0)  -->
<svg version="1.1" id="Camada_1" xmlns="http://www.w3.org/2000/svg" xmlns:xlink="http://www.w3.org/1999/xlink" x="0px" y="0px"
	 viewBox="0 0 500 500" style="enable-background:new 0 0 500 500;" xml:space="preserve">
<style type="text/css">
	.st0{fill:#471816;}
	.st1{fill:#FCFCFB;}
	.st2{fill:#EBBF2D;}
</style>
<g>
	<path class="st0" d="M423.3,50.6c0,112.4,0,224.8,0,337.2c-0.4,0.1-0.4,0.4-0.5,0.7c-1.9,12.7-7.6,23.5-16.2,32.9
		c-8,8.7-18,14.4-28.5,19.2c-18.8,8.6-38.2,15.7-57.4,23.1c-22.9,8.8-45.6,17.9-67.3,29.4c-1.4,0.9-2.5,1.5-3.8,1.5
		s-2.3-0.7-3.8-1.5c-1.9-0.9-3.8-1.6-5.6-2.6c-4.8-2.8-9.8-5.2-14.9-7.6c-22.4-10.2-45.6-18.6-68.6-27.6c-15.4-6-31-11.8-45.6-19.7
		c-15.6-8.5-27-20.7-32.6-37.7c-1.1-3.3-1.8-6.7-2.7-10.1c0-112.2,0-224.5,0-336.7c0.6-0.5,0.5-1.3,0.7-1.9c2-5.7,5.8-9.6,11.7-11.3
		c2.3-0.7,4.5-1.3,6.8-1.8c23.3-5.5,46.8-9.7,70.5-12.9c20-2.6,40.1-4.4,60.2-5.2c0.6,0,39.4-0.2,41.8-0.1c14,0.4,27.9,1.3,41.8,2.6
		c15.5,1.4,30.9,3.3,46.2,5.7c18,2.8,35.8,6.4,53.4,10.8c6.7,1.6,11.6,5,13.7,11.8C422.9,49.4,422.5,50.2,423.3,50.6z M415.1,218.2
		c0-52.1,0-104.2,0-156.3c0-2.4,0.1-4.7,0-7.1c-0.3-5-2.3-8.2-7.4-9.5c-3.2-0.8-6.4-1.6-9.6-2.3c-26.7-6.1-53.7-10.4-80.9-13.3
		c-23.8-2.6-47.7-4-71.6-4c-26,0.1-51.9,1.8-77.6,5c-25.8,3.3-51.4,7.8-76.6,14.6C86.4,46.7,84,49.9,84,55c0,108.3,0,216.6,0,324.9
		c0,1.7,0,3.5,0.3,5.2c2.3,11.2,7.3,21,15.2,29.3c7.3,7.8,16.4,12.9,25.9,17.3c22.1,10.1,45.1,18.1,67.6,27
		c17.9,7.1,35.9,14,52.7,23.5c3,1.7,6,1.5,9-0.2c5.2-3,10.5-5.7,16-8.1c22.7-10.4,46.3-18.9,69.5-27.9c15.4-6,31-11.5,45.3-19.8
		c18.6-10.9,29.6-26.7,29.6-48.9C415.1,324.1,415.1,271.2,415.1,218.2z"/>
	<path class="st1" d="M415.1,218.2c0,53,0,105.9,0,158.9c0,22.3-11,38.1-29.6,48.9c-14.3,8.4-29.9,13.8-45.3,19.8
		c-23.3,9.1-46.8,17.6-69.5,27.9c-5.4,2.5-10.8,5.1-16,8.1c-2.9,1.7-6,1.9-9,0.2c-16.8-9.5-34.8-16.4-52.7-23.5
		c-22.6-8.9-45.5-17-67.6-27c-9.6-4.4-18.6-9.5-25.9-17.3c-7.9-8.4-12.9-18.1-15.2-29.3c-0.3-1.7-0.3-3.4-0.3-5.2
		c0-108.3,0-216.6,0-324.9c0-5.1,2.4-8.3,7.3-9.6c25.2-6.9,50.8-11.3,76.6-14.6c25.8-3.3,51.7-5,77.6-5c23.9-0.1,47.8,1.4,71.6,4
		c27.2,3,54.2,7.3,80.9,13.3c3.2,0.7,6.4,1.6,9.6,2.3c5.1,1.2,7,4.5,7.4,9.5c0.2,2.4,0,4.7,0,7.1C415.1,114,415.1,166.1,415.1,218.2
		z M249.6,181.8c51.3,0,102.6,0,153.9,0c3.7,0,3.7,0,3.7-3.6c0-40.8,0-81.7,0-122.5c0-1.9-0.5-2.8-2.4-3.3c-6-1.6-12-3.2-18.1-4.5
		c-38.3-8.4-77.1-12.8-116.2-14.2c-17.2-0.6-34.3-0.6-51.4,0.2c-21.4,1.1-42.6,3.2-63.8,6.4c-20.4,3.1-40.7,6.9-60.8,12.1
		c-2,0.5-2.6,1.4-2.6,3.4c0.1,40.5,0,81.1,0,121.6c0,4.5,0,4.5,4.4,4.5C147.4,181.8,198.5,181.8,249.6,181.8z M270.5,366.8
		c0,31.9,0,63.7,0,95.6c0,2.3,0.7,2.8,2.7,1.9c14.1-6.2,28.4-11.8,42.8-17.3c1.5-0.6,2-1.4,2-3c0-57.5,0-114.9,0-172.4
		c0-2.1-0.7-2.8-2.7-2.8c-14.2,0-28.3,0-42.5,0c-1.7,0-2.4,0.4-2.4,2.4C270.5,303.2,270.5,335,270.5,366.8z M228.8,366.8
		c0-31.4,0-62.8,0-94.2c0-3.6,0-3.6-3.7-3.6c-13.4,0-26.7,0-40.1,0c-3.6,0-3.6,0-3.6,3.7c0,57,0,114.1,0,171.1c0,2,0.6,2.9,2.5,3.6
		c13.8,5.2,27.5,10.6,41.1,16.5c3.5,1.5,3.9,1.3,3.9-2.5C228.8,429.9,228.8,398.3,228.8,366.8z M139.7,349.1c0-25.7,0-51.5,0-77.2
		c0-2-0.5-3-2.8-3c-14.1,0.1-28.2,0.1-42.3,0c-2.2,0-2.8,0.8-2.8,2.9c0.1,36.3,0,72.6,0,108.8c0,1.1,0.1,2.2,0.2,3.3
		c1.6,11.6,7.2,21,15.8,28.7c8.5,7.7,19,11.8,29.3,16.3c1.4,0.6,2.3,0.1,2.4-1.5c0-0.9,0-1.9,0-2.8
		C139.7,399.5,139.7,374.3,139.7,349.1z M359.6,349.1c0,25.7,0,51.5,0,77.2c0,2.9,0.6,3.3,3.4,2.2c4.9-2,9.8-4.3,14.5-6.7
		c7-3.5,13.2-7.9,18.3-13.9c6.6-7.7,11.2-16.5,11.2-26.9c0.2-36.2,0.1-72.4,0.1-108.6c0-3.3-0.2-3.5-3.4-3.5c-13.6,0-27.2,0-40.8,0
		c-3.1,0-3.3,0.1-3.3,3.4C359.6,297.9,359.6,323.5,359.6,349.1z M281,224.4c0,9.9,0.1,19.8-0.1,29.7c0,1.9,0.6,2.4,2.4,2.3
		c2.9-0.1,5.8,0,8.7,0c7.8-0.1,12.7-4,14.3-11.7c0.3-1.2,0.5-2.5,0.6-3.7c0.3-6.6-0.2-12.9-5.5-17.7c-0.8-0.7-0.4-1,0.1-1.4
		c4.9-4.4,5.3-10.1,4.6-16c-0.9-8.2-5.2-12.4-13.5-13c-3.2-0.2-6.4,0-9.7-0.2c-1.7-0.1-2.1,0.5-2,2.1C281,204.6,281,214.5,281,224.4
		z M238.6,222.7c5.3-6.3,6.1-8.6,5.3-16.7c-0.7-7.6-4.5-11.7-12-12.9c-4-0.7-8-0.2-12-0.4c-1.2,0-1.2,0.7-1.2,1.5
		c0,20.2,0,40.4,0,60.7c0,1.4,0.5,1.7,1.8,1.7c3.2-0.1,6.5,0.1,9.7,0c4.8-0.2,8.9-1.7,11.7-5.9C245.9,244.4,246.8,229,238.6,222.7z
		 M155,224.4c0,0.4,0,0.8,0,1.2c0,9.5,0.1,19,0,28.5c0,1.9,0.5,2.5,2.4,2.3c1.6-0.1,3.3-0.1,4.9,0c1.7,0.2,2.3-0.3,2.2-2.2
		c-0.1-7.7,0-15.4,0-23.1c0-0.7-0.4-1.6,1-1.7c1.1-0.1,1.5,0.4,1.6,1.4c0,0.4,0.2,0.8,0.3,1.1c1,5.8,2.1,11.6,3.2,17.4
		c0.4,2.3-0.1,5.5,1.6,6.6c1.8,1.1,4.7,0.3,7.1,0.4c1.4,0.1,1.9-0.1,1.6-1.8c-1.8-8.8-3.4-17.6-5.2-26.4c-0.3-1.6-0.4-2.9,1-4.2
		c1.4-1.2,2-3,2.5-4.7c1.5-5,1.5-10.1,0.5-15.2c-1.4-7-5.9-11-13-11.4c-3.2-0.2-6.4,0-9.7-0.2c-1.7-0.1-2.1,0.4-2.1,2.1
		C155,204.6,155,214.5,155,224.4z M274.7,224.4c0-1.1,0-2.2,0-3.3c0-5.7,0.2-11.5-0.2-17.2c-0.5-7-4.9-11.4-11.4-12
		c-6.1-0.6-10.9,3-12.7,9.6c-0.5,1.7-0.7,3.5-0.7,5.4c0,11.8,0,23.6,0,35.4c0,1.5,0.2,3,0.4,4.5c1.1,6.2,5.3,10.1,11.1,10.4
		c6.5,0.3,11-2.8,12.8-8.9c0.5-1.7,0.7-3.5,0.7-5.4C274.7,236.7,274.7,230.5,274.7,224.4z M336.9,223.7c-0.2-5.9,0.4-13.3-0.3-20.6
		c-0.6-5.9-4.7-10.1-10.8-11.1c-5.4-0.8-10.3,2.1-12.6,7.4c-0.9,2.2-1.3,4.5-1.3,6.9c0,12.2,0,24.4,0,36.5c0,1.4,0.2,2.8,0.4,4.2
		c1.3,6.2,5.4,9.8,11.1,10c6.5,0.3,10.8-2.8,12.7-8.9c0.5-1.7,0.7-3.4,0.7-5.1C336.9,237,336.9,231.1,336.9,223.7z M199.2,192.7
		c-1.3,0-2.5,0.2-3.8,0c-1.9-0.3-2.4,0.7-2.6,2.3c-1.8,12.1-3.6,24.3-5.4,36.4c-1.2,7.8-2.3,15.5-3.6,23.3c-0.2,1.5,0.2,1.9,1.7,1.8
		c1.8-0.1,3.6-0.1,5.4,0c1.3,0.1,1.9-0.2,2.1-1.7c0.2-3,0.9-5.9,1.1-8.9c0.1-2,0.8-2.8,2.9-2.5c2,0.2,4.6-0.6,6,0.3
		c1.6,1.1,0.9,3.9,1.3,5.9c0.5,2.2-0.3,5.3,1.3,6.4c1.6,1.1,4.4,0.2,6.7,0.4c1.9,0.2,2-0.6,1.8-2.2c-0.8-4.7-1.4-9.3-2.1-14
		c-2.1-14-4.3-28-6.3-42C204.9,192.7,205,192.7,199.2,192.7z M145.9,256.4c0.8,0,1.6-0.1,2.4,0c1.9,0.3,2.5-0.3,2.2-2.4
		c-1.2-7.3-2.3-14.6-3.4-21.9c-1.9-12.7-3.8-25.3-5.7-38c-0.2-1.1-0.6-1.6-1.8-1.6c-2.7,0.1-5.4,0.1-8,0c-1.6-0.1-2.1,0.5-2.3,2
		c-1.2,8.2-2.4,16.5-3.7,24.7c-1.8,11.7-3.5,23.5-5.4,35.2c-0.2,1.4-0.1,2,1.6,1.9c1.9-0.1,3.8-0.1,5.7,0c1.3,0.1,1.8-0.4,1.9-1.7
		c0.4-3.3,0.9-6.5,1.2-9.8c0.1-1.2,0.5-1.6,1.7-1.6c2,0.1,4.1,0.1,6.1,0c1.2,0,1.4,0.4,1.6,1.5c0.2,2.3,0.6,4.7,0.9,7
		C141.4,256.4,141.4,256.4,145.9,256.4z M382.1,224.5c0,5.3,0,10.5,0,15.8c0,2.5-0.1,5,0.6,7.5c1.5,5.7,5.4,9,11,9.2
		c6.1,0.3,10.3-2.5,12.3-8.2c0.9-2.5,1.2-5,1.1-7.7c-0.1-2.2,1-5-0.4-6.3c-1.5-1.3-4.4-0.2-6.6-0.4c-1.5-0.1-1.9,0.5-1.8,1.9
		c0.1,2.4,0.1,4.9,0,7.3c-0.1,2.7-1.4,4.3-3.4,4.3c-1.8,0-3.1-1.6-3.4-4.1c0-0.3,0-0.6,0-0.9c0-12.1,0-24.2,0-36.3
		c0-1.3,0.1-2.5,0.7-3.7c0.6-1.1,1.5-1.8,2.8-1.7c1.3,0,2.2,0.7,2.7,1.9c0.4,0.9,0.6,1.9,0.6,3c0,2.4,0,4.7,0,7.1
		c0,0.9,0.1,1.5,1.2,1.4c2.1-0.1,4.2,0,6.4,0c0.7,0,1.3-0.1,1.2-1c-0.1-4.5,0.6-9.1-1.1-13.5c-2-5.2-5.8-8-11.2-8.1
		c-5.4-0.1-9.3,2.5-11.4,7.8c-0.8,2.1-1.2,4.2-1.2,6.4C382.1,212.2,382.1,218.4,382.1,224.5z M91.9,224.4c0,6.1,0,12.3,0,18.4
		c0,2.7,0.6,5.3,1.8,7.7c2.3,4.6,6,6.6,11.1,6.5c5-0.1,8.5-2.4,10.7-6.8c1.6-3.4,1.6-7,1.5-10.6c0-5.1,0-5.1-5.1-5.1
		c-3.7,0-3.6,0-3.7,3.7c0,2.3,0.3,4.6-0.2,6.8c-0.4,1.7-1.4,2.9-3.2,2.9c-1.8,0-2.6-1.3-3-2.8c-0.2-0.9-0.4-1.9-0.4-2.8
		c0-11.9,0-23.8,0-35.6c0-0.9,0.1-1.9,0.3-2.8c0.4-1.9,2-2.6,3.6-2.7c1.6-0.1,2.2,1.3,2.6,2.6c0.4,1.2,0.3,2.5,0.3,3.7
		c0.1,2.3-1,5.3,0.4,6.6c1.5,1.4,4.5,0.3,6.8,0.4c0.2,0,0.3,0,0.5,0c0.9,0.1,1.1-0.4,1-1.1c-0.1-3.3,0.1-6.6-0.2-9.9
		c-0.8-6.8-5.3-11.2-11.6-11.6c-6.3-0.4-11.1,3.3-12.7,10c-0.4,1.6-0.6,3.2-0.6,4.9C92,212.7,91.9,218.5,91.9,224.4z M356.6,224.3
		c0,8.4,0,16.8,0,25.2c0,2.2-0.7,5.1,0.4,6.4c1.3,1.5,4.3,0.2,6.5,0.5c2.2,0.3,2.6-0.6,2.5-2.6c-0.1-7.8,0-15.6-0.1-23.3
		c0-1.4,0.4-1.9,1.8-1.8c1.7,0.1,3.5,0,5.2,0c1.1,0,1.7-0.2,1.7-1.5c-0.1-2.2-0.1-4.4,0-6.6c0.1-1.3-0.4-1.6-1.6-1.6
		c-1.8,0.1-3.6,0-5.4,0c-1.3,0.1-1.6-0.4-1.6-1.6c0.1-3.3,0-6.6,0-9.9c0-5.2,0-5.2,5.3-5.2c2.5,0,5.9,1.1,7.2-0.5
		c1.2-1.5,0.3-4.8,0.4-7.3c0.1-1.5-0.4-1.8-1.8-1.8c-6.1,0.1-12.3,0.1-18.4,0c-1.9,0-2.1,0.6-2.1,2.2
		C356.7,204.7,356.6,214.5,356.6,224.3z"/>
	<path class="st0" d="M249.6,181.8c-51.1,0-102.1,0-153.2,0c-4.4,0-4.4,0-4.4-4.5c0-40.5,0-81.1,0-121.6c0-2,0.7-2.9,2.6-3.4
		c20-5.2,40.3-9,60.8-12.1c21.2-3.2,42.4-5.3,63.8-6.4c17.1-0.9,34.3-0.8,51.4-0.2c39.1,1.4,77.9,5.8,116.2,14.2
		c6.1,1.3,12.1,2.9,18.1,4.5c1.9,0.5,2.4,1.5,2.4,3.3c0,40.8,0,81.7,0,122.5c0,3.6,0,3.6-3.7,3.6
		C352.2,181.8,300.9,181.8,249.6,181.8z M175.7,171.5c10.7,0,21.4,0,32.1,0c4.5,0,4.5,0,4.5-4.4c0-6.8-0.1-13.7-0.1-20.5
		c0-0.8-0.4-2.2,1.2-2c2.4,0.3,2.4-1,2.4-2.8c0-17.5,0-35.1,0-52.6c0-1.4-0.8-3.3,1.9-3.3c0.8,0,0.7-1.1,0.7-1.8c0-2,0-3.9,0-5.9
		c0-1.1,0.3-1.6,1.5-1.5c3,0,6,0.1,9,0c1.1,0,1.5,0.4,1.5,1.5c-0.1,1.7,0,3.3,0,5c0,1,0.5,1.3,1.3,0.8c2.4-1.6,5.5-2.5,6.6-5.8
		c0.4-1.4,1.4-2.7,1.9-4c2-5.2,5.7-7.1,11.1-6.6c2.9,0.3,5.1,1.4,6.5,4c1.3,2.6,2.8,5.1,4,7.7c1.2,2.6,3.6,3.6,6,4.7
		c0.9,0.4,1.3,0.1,1.3-0.9c0-1.7,0-3.3,0-5c0-1.1,0.4-1.5,1.5-1.5c2.9,0.1,5.8,0.1,8.7,0c1.2,0,1.7,0.3,1.6,1.6
		c-0.1,2.1,0,4.2,0,6.4c0,0.6-0.2,1.5,0.8,1.4c2.1-0.2,1.8,1.2,1.8,2.5c0,8.2,0,16.4,0,24.5c0,9.8,0,19.7,0,29.5
		c0,1.2-0.1,2.3,1.6,2c2-0.4,2.1,0.8,2.1,2.3c-0.1,7.6,0,15.1-0.1,22.7c0,1.6,0.4,2,2,2c23.1,0,46.1-0.1,69.2,0
		c1.9,0,2.2-0.7,2.2-2.3c-0.1-5-0.3-9.9-1-14.8c-3.9-26.7-15.5-49.5-35.7-67.3c-28-24.8-60.9-33.2-97.5-25.9
		c-21.5,4.3-39.8,15.1-55.3,30.5c-5.5,5.4-10,11.6-14.3,18c-3.9,5.9-7.1,12.2-9.7,18.8c-5,13-7.7,26.3-7.8,40.3
		c0,2.1,0.6,2.8,2.7,2.7C153,171.4,164.3,171.5,175.7,171.5z M264.7,118.4c0-7.8,0-15.6,0-23.4c0-1.5-0.2-2.4-1.8-3
		c-2.6-0.9-4.7-2.6-6-5.1c-0.7-1.3-1.7-1.8-3-1.8c-3,0-6,0-9,0c-1.1,0-1.9,0.3-2.4,1.4c-1.3,2.5-3.4,4.4-6.1,5.3
		c-1.7,0.6-2,1.6-2,3.1c0.1,7.2,0,14.5,0,21.7c0,8.5,0,17,0,25.5c0,0.9-0.5,2.3,1.2,2.1c1.8-0.2,2,0.8,2,2.2
		c-0.1,7.5,0,14.9-0.2,22.4c0,1.9,0.6,2.4,2.4,2.3c6.4-0.1,12.7-0.1,19.1,0c2,0,2.5-0.6,2.5-2.5c-0.1-7.5-0.1-14.9-0.1-22.4
		c0-1-0.3-2.2,1.4-2c1.7,0.2,1.9-0.6,1.9-2.1C264.6,134.4,264.7,126.4,264.7,118.4z"/>
	<path class="st0" d="M270.5,366.8c0-31.8,0-63.6-0.1-95.4c0-2,0.7-2.4,2.4-2.4c14.2,0,28.3,0,42.5,0c2,0,2.7,0.7,2.7,2.8
		c0,57.5,0,114.9,0,172.4c0,1.6-0.4,2.4-2,3c-14.4,5.5-28.7,11.1-42.8,17.3c-2.1,0.9-2.7,0.4-2.7-1.9
		C270.5,430.5,270.5,398.7,270.5,366.8z"/>
	<path class="st0" d="M228.8,366.8c0,31.5,0,63.1,0,94.6c0,3.8-0.4,4-3.9,2.5c-13.5-5.9-27.3-11.3-41.1-16.5
		c-1.9-0.7-2.5-1.6-2.5-3.6c0.1-57,0-114.1,0-171.1c0-3.7,0-3.7,3.6-3.7c13.4,0,26.7,0,40.1,0c3.7,0,3.7,0,3.7,3.6
		C228.8,304,228.8,335.4,228.8,366.8z"/>
	<path class="st0" d="M139.7,349.1c0,25.2,0,50.4,0,75.5c0,0.9,0,1.9,0,2.8c-0.1,1.6-0.9,2.1-2.4,1.5c-10.3-4.5-20.8-8.6-29.3-16.3
		c-8.6-7.7-14.2-17.1-15.8-28.7c-0.2-1.1-0.2-2.2-0.2-3.3c0-36.3,0-72.6,0-108.8c0-2.1,0.6-2.9,2.8-2.9c14.1,0.1,28.2,0.1,42.3,0
		c2.3,0,2.8,0.9,2.8,3C139.6,297.7,139.7,323.4,139.7,349.1z"/>
	<path class="st0" d="M359.6,349.1c0-25.6,0-51.2,0-76.7c0-3.2,0.1-3.4,3.3-3.4c13.6,0,27.2,0,40.8,0c3.3,0,3.4,0.2,3.4,3.5
		c0,36.2,0.1,72.4-0.1,108.6c-0.1,10.3-4.6,19.1-11.2,26.9c-5.1,5.9-11.4,10.4-18.3,13.9c-4.8,2.4-9.6,4.7-14.5,6.7
		c-2.7,1.1-3.4,0.7-3.4-2.2C359.6,400.5,359.6,374.8,359.6,349.1z"/>
	<path class="st0" d="M281,224.4c0-9.9,0-19.8,0-29.7c0-1.6,0.3-2.2,2-2.1c3.2,0.2,6.5,0,9.7,0.2c8.2,0.6,12.6,4.8,13.5,13
		c0.7,5.9,0.3,11.7-4.6,16c-0.5,0.4-0.9,0.8-0.1,1.4c5.4,4.8,5.9,11.1,5.5,17.7c-0.1,1.2-0.3,2.5-0.6,3.7
		c-1.7,7.6-6.5,11.6-14.3,11.7c-2.9,0-5.8-0.1-8.7,0c-1.8,0.1-2.4-0.4-2.4-2.3C281.1,244.3,281,234.4,281,224.4z M297.2,237.4
		c0.1-1.9-0.1-3.8-0.6-5.6c-0.6-2.1-1.8-3.7-4.1-4.1c-1.5-0.3-2.3,0-2.2,1.8c0.1,4.9,0,9.7,0.1,14.6c0,1-0.7,2.4,0.6,2.9
		c1.3,0.4,2.6-0.2,3.7-1.1c1-0.8,1.6-1.9,1.9-3.2C297.2,241,297.3,239.2,297.2,237.4z M290.4,210.5c0,1.8-0.1,3.6,0,5.4
		c0,1-0.6,2.3,0.4,2.8c1.1,0.6,2.4-0.1,3.5-0.7c1.2-0.7,2-1.8,2.3-3.1c0.8-2.9,0.9-5.9,0-8.8c-0.6-2.2-2-3.6-4.4-4
		c-1.4-0.3-2,0-1.9,1.6C290.5,205.9,290.4,208.2,290.4,210.5z"/>
	<path class="st0" d="M238.6,222.7c8.2,6.3,7.3,21.8,3.3,27.8c-2.8,4.2-6.9,5.7-11.7,5.9c-3.2,0.1-6.4,0-9.7,0
		c-1.3,0-1.8-0.2-1.8-1.7c0-20.2,0-40.4,0-60.7c0-0.8-0.1-1.5,1.2-1.5c4,0.2,8-0.3,12,0.4c7.5,1.2,11.3,5.3,12,12.9
		C244.7,214.1,244,216.4,238.6,222.7z M228.1,237.3C228.1,237.3,228.1,237.3,228.1,237.3c0,2.3,0,4.6,0,6.8c0,1-0.5,2.4,0.5,2.8
		c1.2,0.5,2.6,0,3.7-0.9c1.1-0.8,1.7-1.9,2-3.1c1-3.7,1-7.5,0-11.2c-0.6-2.2-1.9-3.8-4.3-4.1c-1.3-0.2-2,0-2,1.7
		C228.2,232,228.1,234.6,228.1,237.3z M228.1,210.4c0,1.8,0,3.6,0,5.4c0,1-0.5,2.4,0.4,2.9c1.2,0.6,2.6,0,3.8-0.8
		c1-0.7,1.7-1.6,2.1-2.8c0.9-3.1,1-6.2,0-9.3c-0.6-2-2-3.3-4.2-3.7c-1.5-0.3-2.2,0-2.1,1.7C228.2,206,228.1,208.2,228.1,210.4z"/>
	<path class="st0" d="M155,224.4c0-9.9,0-19.8,0-29.7c0-1.6,0.4-2.2,2.1-2.1c3.2,0.2,6.5,0,9.7,0.2c7.1,0.4,11.6,4.4,13,11.4
		c1,5.1,1,10.1-0.5,15.2c-0.5,1.8-1.2,3.5-2.5,4.7c-1.5,1.3-1.3,2.5-1,4.2c1.8,8.8,3.4,17.6,5.2,26.4c0.3,1.7-0.2,1.9-1.6,1.8
		c-2.4-0.1-5.4,0.7-7.1-0.4c-1.7-1.1-1.2-4.3-1.6-6.6c-1.1-5.8-2.1-11.6-3.2-17.4c-0.1-0.4-0.2-0.8-0.3-1.1c-0.1-1-0.5-1.5-1.6-1.4
		c-1.4,0.1-1,1-1,1.7c0,7.7-0.1,15.4,0,23.1c0,1.8-0.5,2.3-2.2,2.2c-1.6-0.1-3.3-0.2-4.9,0c-1.8,0.2-2.4-0.4-2.4-2.3
		c0.1-9.5,0-19,0-28.5C155,225.2,155,224.8,155,224.4z M164.5,211.2c0,2.2-0.1,4.4,0,6.6c0,1-0.5,2.3,0.4,2.8
		c1.1,0.5,2.4-0.2,3.5-0.9c1.1-0.7,1.8-1.8,2.1-3c1.1-3.6,1.1-7.3-0.1-10.9c-0.7-2.1-2.1-3.4-4.4-3.7c-1.1-0.2-1.5,0.2-1.5,1.3
		C164.5,206,164.5,208.6,164.5,211.2z"/>
	<path class="st0" d="M274.7,224.4c0,6.1,0,12.3,0,18.4c0,1.8-0.2,3.6-0.7,5.4c-1.8,6.1-6.3,9.2-12.8,8.9c-5.8-0.3-10-4.2-11.1-10.4
		c-0.3-1.5-0.4-3-0.4-4.5c0-11.8,0-23.6,0-35.4c0-1.8,0.2-3.6,0.7-5.4c1.8-6.6,6.6-10.1,12.7-9.6c6.5,0.6,11,5,11.4,12
		c0.4,5.7,0.1,11.5,0.2,17.2C274.7,222.2,274.7,223.3,274.7,224.4z M265.2,224.4c0-6.1,0-12.3,0-18.4c0-1.1,0-2.2-0.5-3.2
		c-0.5-1-1.2-1.6-2.4-1.6c-1.1,0-2,0.5-2.5,1.5c-0.4,0.8-0.7,1.8-0.7,2.7c0,12.8,0,25.6,0,38.5c0,2.6,1.5,4.3,3.2,4.2
		c1.7-0.1,2.8-1.6,2.9-4.2c0-0.5,0-0.9,0-1.4C265.2,236.4,265.2,230.4,265.2,224.4z"/>
	<path class="st0" d="M336.9,223.7c0,7.4,0,13.4,0,19.3c0,1.7-0.2,3.5-0.7,5.1c-1.9,6.2-6.2,9.2-12.7,8.9c-5.7-0.2-9.8-3.9-11.1-10
		c-0.3-1.4-0.4-2.8-0.4-4.2c0-12.2,0-24.4,0-36.5c0-2.4,0.4-4.7,1.3-6.9c2.2-5.3,7.2-8.2,12.6-7.4c6,0.9,10.2,5.2,10.8,11.1
		C337.3,210.4,336.7,217.7,336.9,223.7z M327.5,224.7c0-6.2,0-12.4,0-18.6c0-3.4-1-5-3.1-4.9c-2,0-3.1,1.7-3.1,5
		c0,12.3,0,24.5,0,36.8c0,3.1,1.2,5.1,3.1,5c1.9,0,3-1.8,3-5.1C327.5,236.9,327.5,230.8,327.5,224.7z"/>
	<path class="st0" d="M199.2,192.7c5.8,0,5.6,0,6.5,5.7c2,14,4.2,28,6.3,42c0.7,4.7,1.4,9.3,2.1,14c0.3,1.5,0.1,2.3-1.8,2.2
		c-2.3-0.2-5.1,0.6-6.7-0.4c-1.7-1.1-0.9-4.2-1.3-6.4c-0.4-2,0.3-4.9-1.3-5.9c-1.4-1-4-0.1-6-0.3c-2-0.2-2.7,0.5-2.9,2.5
		c-0.2,3-0.9,5.9-1.1,8.9c-0.1,1.5-0.8,1.8-2.1,1.7c-1.8-0.1-3.6-0.1-5.4,0c-1.5,0.1-1.9-0.3-1.7-1.8c1.2-7.8,2.4-15.5,3.6-23.3
		c1.8-12.1,3.6-24.3,5.4-36.4c0.2-1.6,0.7-2.6,2.6-2.3C196.7,192.8,198,192.7,199.2,192.7z M199.4,212.1c-0.2,0-0.4,0-0.6,0
		c-0.9,6.8-1.8,13.6-2.7,20.4c-0.2,1.3,0.8,1,1.4,0.9c1.6-0.2,3.3,0.7,4.7-0.6c0.1-0.1,0-0.3-0.1-0.5
		C201.2,225.6,200.3,218.8,199.4,212.1z"/>
	<path class="st0" d="M145.9,256.4c-4.5,0-4.5,0-5-4.6c-0.2-2.3-0.7-4.7-0.9-7c-0.1-1-0.4-1.5-1.6-1.5c-2,0.1-4.1,0.1-6.1,0
		c-1.2-0.1-1.6,0.4-1.7,1.6c-0.4,3.3-0.9,6.5-1.2,9.8c-0.1,1.2-0.6,1.8-1.9,1.7c-1.9-0.1-3.8-0.1-5.7,0c-1.6,0.1-1.8-0.6-1.6-1.9
		c1.8-11.7,3.6-23.4,5.4-35.2c1.2-8.2,2.5-16.5,3.7-24.7c0.2-1.5,0.7-2.1,2.3-2c2.7,0.1,5.3,0.1,8,0c1.2,0,1.6,0.4,1.8,1.6
		c1.9,12.7,3.8,25.3,5.7,38c1.1,7.3,2.1,14.6,3.4,21.9c0.4,2.1-0.2,2.6-2.2,2.4C147.5,256.3,146.7,256.4,145.9,256.4z M135.6,212
		c-0.2,0-0.4,0-0.6,0c-0.9,6.9-2.1,13.7-2.5,20.6c-0.1,1.8,3,0.4,4.6,0.8c0.8,0.2,1.5,0.1,1.3-1.2
		C137.5,225.5,136.6,218.8,135.6,212z"/>
	<path class="st0" d="M382.1,224.5c0-6.1,0-12.3,0-18.4c0-2.2,0.3-4.4,1.2-6.4c2.1-5.2,6-7.9,11.4-7.8c5.4,0.1,9.2,2.9,11.2,8.1
		c1.7,4.4,1,9,1.1,13.5c0,0.9-0.5,1-1.2,1c-2.1,0-4.2-0.1-6.4,0c-1.2,0-1.3-0.5-1.2-1.4c0-2.4,0-4.7,0-7.1c0-1-0.1-2-0.6-3
		c-0.5-1.2-1.4-1.9-2.7-1.9c-1.4,0-2.2,0.6-2.8,1.7c-0.6,1.1-0.7,2.4-0.7,3.7c0,12.1,0,24.2,0,36.3c0,0.3,0,0.6,0,0.9
		c0.3,2.6,1.5,4.1,3.4,4.1c2,0,3.3-1.6,3.4-4.3c0.1-2.4,0.1-4.9,0-7.3c-0.1-1.4,0.3-2,1.8-1.9c2.3,0.2,5.1-0.9,6.6,0.4
		c1.4,1.3,0.3,4.2,0.4,6.3c0.1,2.6-0.2,5.2-1.1,7.7c-2,5.7-6.2,8.4-12.3,8.2c-5.6-0.2-9.5-3.6-11-9.2c-0.7-2.5-0.6-5-0.6-7.5
		C382.1,235,382.1,229.8,382.1,224.5z"/>
	<path class="st0" d="M91.9,224.4c0-5.9,0-11.8,0-17.7c0-1.7,0.2-3.3,0.6-4.9c1.6-6.6,6.4-10.3,12.7-10c6.3,0.4,10.8,4.8,11.6,11.6
		c0.4,3.3,0.2,6.6,0.2,9.9c0,0.7-0.2,1.2-1,1.1c-0.2,0-0.3,0-0.5,0c-2.3-0.1-5.3,1-6.8-0.4c-1.4-1.3-0.3-4.3-0.4-6.6
		c-0.1-1.3,0.1-2.5-0.3-3.7c-0.5-1.3-1.1-2.7-2.6-2.6c-1.6,0.1-3.2,0.9-3.6,2.7c-0.2,0.9-0.3,1.9-0.3,2.8c0,11.9,0,23.8,0,35.6
		c0,0.9,0.1,1.9,0.4,2.8c0.4,1.5,1.2,2.8,3,2.8c1.8,0,2.8-1.2,3.2-2.9c0.5-2.3,0.2-4.5,0.2-6.8c0.1-3.7,0-3.7,3.7-3.7
		c5.1,0,5.1,0,5.1,5.1c0,3.6,0.1,7.2-1.5,10.6c-2.2,4.5-5.7,6.7-10.7,6.8c-5,0.1-8.8-1.9-11.1-6.5c-1.2-2.4-1.8-5-1.8-7.7
		C91.9,236.7,91.9,230.6,91.9,224.4z"/>
	<path class="st0" d="M356.6,224.3c0-9.8,0-19.7,0-29.5c0-1.6,0.2-2.3,2.1-2.2c6.1,0.1,12.3,0.1,18.4,0c1.4,0,1.9,0.3,1.8,1.8
		c-0.2,2.5,0.8,5.8-0.4,7.3c-1.3,1.6-4.7,0.5-7.2,0.5c-5.3,0.1-5.3,0-5.3,5.2c0,3.3,0,6.6,0,9.9c0,1.2,0.4,1.7,1.6,1.6
		c1.8-0.1,3.6,0,5.4,0c1.2-0.1,1.7,0.3,1.6,1.6c-0.1,2.2-0.1,4.4,0,6.6c0.1,1.3-0.5,1.6-1.7,1.5c-1.7-0.1-3.5,0.1-5.2,0
		c-1.5-0.1-1.8,0.4-1.8,1.8c0.1,7.8,0,15.6,0.1,23.3c0,2-0.3,2.9-2.5,2.6c-2.2-0.3-5.2,1-6.5-0.5c-1.1-1.2-0.4-4.2-0.4-6.4
		C356.6,241.2,356.6,232.8,356.6,224.3z"/>
	<path class="st2" d="M175.7,171.5c-11.3,0-22.7-0.1-34,0.1c-2.2,0-2.8-0.6-2.7-2.7c0.1-13.9,2.8-27.3,7.8-40.3
		c2.5-6.6,5.7-12.9,9.7-18.8c4.2-6.4,8.8-12.6,14.3-18c15.5-15.4,33.8-26.2,55.3-30.5c36.6-7.4,69.4,1.1,97.5,25.9
		c20.2,17.9,31.8,40.6,35.7,67.3c0.7,4.9,1,9.8,1,14.8c0,1.7-0.3,2.3-2.2,2.3c-23.1-0.1-46.1-0.1-69.2,0c-1.5,0-2-0.4-2-2
		c0.1-7.6,0.1-15.1,0.1-22.7c0-1.5,0-2.7-2.1-2.3c-1.7,0.3-1.6-0.9-1.6-2c0-9.8,0-19.7,0-29.5c0-8.2,0-16.4,0-24.5
		c0-1.2,0.3-2.6-1.8-2.5c-1,0.1-0.8-0.8-0.8-1.4c0-2.1-0.1-4.3,0-6.4c0.1-1.3-0.5-1.6-1.6-1.6c-2.9,0.1-5.8,0.1-8.7,0
		c-1.1,0-1.6,0.4-1.5,1.5c0.1,1.6,0,3.3,0,5c0,1-0.3,1.3-1.3,0.9c-2.4-1.1-4.7-2.1-6-4.7c-1.2-2.6-2.7-5.2-4-7.7
		c-1.4-2.6-3.6-3.7-6.5-4c-5.4-0.6-9.1,1.4-11.1,6.6c-0.5,1.4-1.5,2.6-1.9,4c-1.1,3.3-4.1,4.1-6.6,5.8c-0.8,0.5-1.3,0.2-1.3-0.8
		c0-1.7,0-3.3,0-5c0-1.1-0.3-1.5-1.5-1.5c-3,0.1-6,0.1-9,0c-1.1,0-1.5,0.4-1.5,1.5c0.1,2,0,3.9,0,5.9c0,0.7,0.1,1.8-0.7,1.8
		c-2.7,0-1.9,2-1.9,3.3c0,17.5,0,35.1,0,52.6c0,1.8-0.1,3.1-2.4,2.8c-1.6-0.2-1.2,1.1-1.2,2c0,6.8,0.1,13.7,0.1,20.5
		c0,4.4,0,4.4-4.5,4.4C197.1,171.5,186.4,171.5,175.7,171.5z"/>
	<path class="st2" d="M264.7,118.4c0,8,0,16.1,0,24.1c0,1.4-0.2,2.3-1.9,2.1c-1.7-0.2-1.4,1-1.4,2c0,7.5,0,14.9,0.1,22.4
		c0,1.9-0.4,2.6-2.5,2.5c-6.4-0.1-12.7-0.1-19.1,0c-1.8,0-2.4-0.4-2.4-2.3c0.1-7.5,0.1-14.9,0.2-22.4c0-1.5-0.2-2.4-2-2.2
		c-1.8,0.2-1.2-1.3-1.2-2.1c0-8.5,0-17,0-25.5c0-7.2,0-14.5,0-21.7c0-1.6,0.2-2.5,2-3.1c2.7-0.9,4.8-2.8,6.1-5.3
		c0.6-1.1,1.3-1.4,2.4-1.4c3,0,6,0,9,0c1.3,0,2.3,0.4,3,1.8c1.3,2.4,3.4,4.2,6,5.1c1.6,0.6,1.9,1.5,1.8,3
		C264.6,102.8,264.7,110.6,264.7,118.4z"/>
	<path class="st1" d="M297.2,237.4c0,1.8-0.1,3.6-0.6,5.4c-0.4,1.2-0.9,2.3-1.9,3.2c-1.1,0.9-2.4,1.5-3.7,1.1
		c-1.3-0.5-0.6-1.9-0.6-2.9c-0.1-4.9,0.1-9.7-0.1-14.6c0-1.9,0.7-2.1,2.2-1.8c2.3,0.5,3.4,2.1,4.1,4.1
		C297.2,233.6,297.3,235.5,297.2,237.4z"/>
	<path class="st1" d="M290.4,210.5c0-2.3,0.1-4.5,0-6.8c-0.1-1.6,0.5-1.8,1.9-1.6c2.4,0.4,3.8,1.8,4.4,4c0.8,2.9,0.8,5.9,0,8.8
		c-0.4,1.3-1.1,2.4-2.3,3.1c-1.1,0.6-2.4,1.3-3.5,0.7c-1-0.5-0.4-1.9-0.4-2.8C290.3,214.1,290.4,212.3,290.4,210.5z"/>
	<path class="st1" d="M228.1,237.3c0-2.7,0.1-5.3,0-8c-0.1-1.6,0.6-1.8,2-1.7c2.4,0.3,3.7,2,4.3,4.1c1,3.7,0.9,7.5,0,11.2
		c-0.3,1.2-0.9,2.3-2,3.1c-1.1,0.8-2.5,1.4-3.7,0.9c-1-0.4-0.4-1.8-0.5-2.8C228.1,241.9,228.1,239.6,228.1,237.3
		C228.1,237.3,228.1,237.3,228.1,237.3z"/>
	<path class="st1" d="M228.1,210.4c0-2.2,0.1-4.4,0-6.6c-0.1-1.7,0.6-2,2.1-1.7c2.2,0.4,3.5,1.7,4.2,3.7c1,3.1,0.9,6.2,0,9.3
		c-0.3,1.1-1,2.1-2.1,2.8c-1.2,0.8-2.6,1.4-3.8,0.8c-0.9-0.4-0.4-1.9-0.4-2.9C228.1,214,228.1,212.2,228.1,210.4z"/>
	<path class="st1" d="M164.5,211.2c0-2.6,0-5.2,0-7.8c0-1.2,0.4-1.5,1.5-1.3c2.3,0.3,3.7,1.6,4.4,3.7c1.2,3.6,1.2,7.3,0.1,10.9
		c-0.4,1.2-1,2.3-2.1,3c-1.1,0.7-2.4,1.4-3.5,0.9c-1-0.5-0.4-1.8-0.4-2.8C164.4,215.6,164.5,213.4,164.5,211.2z"/>
	<path class="st1" d="M265.2,224.4c0,6,0,12,0,17.9c0,0.5,0,0.9,0,1.4c-0.1,2.6-1.1,4.1-2.9,4.2c-1.7,0.1-3.2-1.6-3.2-4.2
		c-0.1-12.8,0-25.6,0-38.5c0-1,0.3-1.9,0.7-2.7c0.5-1,1.3-1.5,2.5-1.5c1.2,0,1.9,0.6,2.4,1.6c0.5,1,0.5,2.1,0.5,3.2
		C265.2,212.1,265.2,218.3,265.2,224.4z"/>
	<path class="st1" d="M327.5,224.7c0,6.1,0,12.1,0,18.2c0,3.3-1.1,5-3,5.1c-1.9,0-3.1-1.9-3.1-5c0-12.3,0-24.5,0-36.8
		c0-3.3,1.1-5,3.1-5c2,0,3.1,1.6,3.1,4.9C327.5,212.3,327.5,218.5,327.5,224.7z"/>
	<path class="st1" d="M199.4,212.1c0.9,6.8,1.8,13.5,2.7,20.3c0,0.2,0.1,0.4,0.1,0.5c-1.4,1.4-3.2,0.4-4.7,0.6
		c-0.6,0.1-1.6,0.4-1.4-0.9c0.9-6.8,1.8-13.6,2.7-20.4C199,212.1,199.2,212.1,199.4,212.1z"/>
	<path class="st1" d="M135.6,212c0.9,6.8,1.8,13.5,2.8,20.3c0.2,1.3-0.6,1.4-1.3,1.2c-1.6-0.4-4.7,1-4.6-0.8
		c0.4-6.9,1.6-13.8,2.5-20.6C135.2,212,135.4,212,135.6,212z"/>
</g>
</svg>
