<?xml version="1.0" encoding="UTF-8"?>
<!DOCTYPE svg PUBLIC "-//W3C//DTD SVG 1.1//EN" "http://www.w3.org/Graphics/SVG/1.1/DTD/svg11.dtd">
<svg xmlns="http://www.w3.org/2000/svg" version="1.1" width="200px" height="224px" style="shape-rendering:geometricPrecision; text-rendering:geometricPrecision; image-rendering:optimizeQuality; fill-rule:evenodd; clip-rule:evenodd" xmlns:xlink="http://www.w3.org/1999/xlink">
<g><path style="opacity:0.047" fill="#f9f9f9" d="M 20.5,-0.5 C 22.8333,-0.5 25.1667,-0.5 27.5,-0.5C 27.6716,0.491622 27.3382,1.15829 26.5,1.5C 24.3736,0.951844 22.3736,0.285178 20.5,-0.5 Z"/></g>
<g><path style="opacity:0.061" fill="#f5f5f5" d="M 171.5,-0.5 C 172.833,-0.5 174.167,-0.5 175.5,-0.5C 174.5,0.166667 173.5,0.833333 172.5,1.5C 171.662,1.15829 171.328,0.491622 171.5,-0.5 Z"/></g>
<g><path style="opacity:0.998" fill="#0d0e0c" d="M 27.5,-0.5 C 75.5,-0.5 123.5,-0.5 171.5,-0.5C 171.328,0.491622 171.662,1.15829 172.5,1.5C 181.113,55.7913 189.446,110.125 197.5,164.5C 197.5,165.833 198.167,166.5 199.5,166.5C 199.5,173.5 199.5,180.5 199.5,187.5C 198.542,189.302 197.875,191.302 197.5,193.5C 194.397,205.603 186.73,212.937 174.5,215.5C 151.344,216.092 128.344,216.759 105.5,217.5C 103.861,218.473 102.527,219.806 101.5,221.5C 100.167,222.833 98.8333,222.833 97.5,221.5C 96.657,219.827 95.3237,218.66 93.5,218C 70.4583,217.948 47.4583,217.281 24.5,216C 12.3428,213.009 4.67616,205.509 1.5,193.5C 0.921588,190.72 0.254922,188.053 -0.5,185.5C -0.5,181.5 -0.5,177.5 -0.5,173.5C 0.343778,170.655 1.01044,167.655 1.5,164.5C 9.55363,110.125 17.887,55.7913 26.5,1.5C 27.3382,1.15829 27.6716,0.491622 27.5,-0.5 Z"/></g>
<g><path style="opacity:1" fill="#faed02" d="M 185.5,137.5 C 173.352,138.832 160.852,139.499 148,139.5C 135.329,139.5 122.829,139.167 110.5,138.5C 124.445,127.19 138.778,116.356 153.5,106C 160.189,104.451 165.522,106.451 169.5,112C 171.167,112.667 172.833,112.667 174.5,112C 175.059,111.275 175.392,110.442 175.5,109.5C 168.295,97.9086 158.628,95.4086 146.5,102C 141.167,106 135.833,110 130.5,114C 125.27,114.534 120.27,113.701 115.5,111.5C 113.04,111.301 110.707,110.635 108.5,109.5C 110.184,106.388 110.85,103.054 110.5,99.5C 104.379,99.1143 98.7121,100.448 93.5,103.5C 82.1342,101.427 71.1342,102.593 60.5,107C 58.9632,108.11 58.2965,109.61 58.5,111.5C 52.813,111.942 48.1463,114.275 44.5,118.5C 46.8353,121.166 48.6686,124.166 50,127.5C 51.7505,128.222 53.2505,129.222 54.5,130.5C 54.6854,132.196 55.5187,133.529 57,134.5C 57.4966,132.19 57.6633,129.857 57.5,127.5C 62.1493,126.705 66.8159,126.539 71.5,127C 74.4881,130.252 75.1548,133.918 73.5,138C 70.657,138.446 67.8236,138.946 65,139.5C 62.5941,139.297 60.5941,138.297 59,136.5C 58.5172,137.448 58.3505,138.448 58.5,139.5C 43.1294,140.15 28.1294,139.484 13.5,137.5C 19.5216,94.0605 26.1882,50.7271 33.5,7.5C 77.5,6.16667 121.5,6.16667 165.5,7.5C 172.812,50.7271 179.478,94.0605 185.5,137.5 Z"/></g>
<g><path style="opacity:1" fill="#99910c" d="M 66.5,16.5 C 61.6367,16.1805 56.97,16.5139 52.5,17.5C 51.9569,17.44 51.6236,17.1067 51.5,16.5C 56.6523,15.1863 61.6523,15.1863 66.5,16.5 Z"/></g>
<g><path style="opacity:1" fill="#9c940c" d="M 138.5,16.5 C 129.318,16.1734 120.318,16.5067 111.5,17.5C 110.957,17.44 110.624,17.1067 110.5,16.5C 119.992,15.1778 129.325,15.1778 138.5,16.5 Z"/></g>
<g><path style="opacity:1" fill="#080702" d="M 66.5,16.5 C 74.2654,36.9536 81.7654,57.6203 89,78.5C 90.0121,81.2018 91.5121,83.5351 93.5,85.5C 87.9738,85.8214 82.6405,85.4881 77.5,84.5C 78.9291,81.5366 78.4291,78.8699 76,76.5C 69.4181,85.7772 60.9181,87.9438 50.5,83C 48.316,80.9835 46.316,78.8169 44.5,76.5C 43.2706,79.1987 43.2706,81.8654 44.5,84.5C 39.5,85.8333 34.5,85.8333 29.5,84.5C 31.4879,82.5351 32.9879,80.2018 34,77.5C 40.1362,59.4245 46.4695,41.4245 53,23.5C 53.6776,21.4024 53.5109,19.4024 52.5,17.5C 56.97,16.5139 61.6367,16.1805 66.5,16.5 Z"/></g>
<g><path style="opacity:1" fill="#090702" d="M 138.5,16.5 C 150.376,20.276 153.543,27.9427 148,39.5C 146.859,41.6089 145.359,43.4422 143.5,45C 150.683,45.8479 155.516,49.6812 158,56.5C 158.818,62.9017 158.484,69.235 157,75.5C 154.746,81.2572 150.579,84.5905 144.5,85.5C 133.654,85.8278 122.987,85.4944 112.5,84.5C 113.655,62.9062 113.821,41.2395 113,19.5C 112.283,18.9558 111.783,18.2891 111.5,17.5C 120.318,16.5067 129.318,16.1734 138.5,16.5 Z"/></g>
<g><path style="opacity:1" fill="#f5ea06" d="M 124.5,24.5 C 138.853,22.6604 142.687,27.9937 136,40.5C 132.914,44.2565 129.248,47.2565 125,49.5C 124.5,41.1733 124.334,32.84 124.5,24.5 Z"/></g>
<g><path style="opacity:1" fill="#f0e607" d="M 60.5,30.5 C 64.0014,38.9892 67.3348,47.6558 70.5,56.5C 70.1667,56.8333 69.8333,57.1667 69.5,57.5C 63.4102,54.93 57.4102,54.93 51.5,57.5C 53.429,48.3792 56.429,39.3792 60.5,30.5 Z"/></g>
<g><path style="opacity:1" fill="#faee02" d="M 135.5,53.5 C 146.543,54.5448 150.377,60.5448 147,71.5C 146.215,73.286 145.049,74.786 143.5,76C 137.175,76.4995 130.842,76.6662 124.5,76.5C 124.171,70.7945 124.505,65.1278 125.5,59.5C 128.598,56.9574 131.931,54.9574 135.5,53.5 Z"/></g>
<g><path style="opacity:1" fill="#f5ea04" d="M 56.5,58.5 C 70.461,58.2632 75.2944,64.5965 71,77.5C 61.6989,85.1725 54.0322,83.8392 48,73.5C 47.2103,66.4097 50.0436,61.4097 56.5,58.5 Z"/></g>
<g><path style="opacity:1" fill="#131105" d="M 99.5,77.5 C 106.004,77.1377 107.671,79.6377 104.5,85C 97.745,85.7558 96.0783,83.2558 99.5,77.5 Z"/></g>
<g><path style="opacity:1" fill="#141105" d="M 161.5,77.5 C 168.004,77.1377 169.671,79.6377 166.5,85C 159.745,85.7558 158.078,83.2558 161.5,77.5 Z"/></g>
<g><path style="opacity:1" fill="#6e670c" d="M 29.5,84.5 C 34.5,85.8333 39.5,85.8333 44.5,84.5C 45.2891,84.7828 45.9558,85.2828 46.5,86C 40.4724,86.8303 34.4724,86.6636 28.5,85.5C 28.6236,84.8933 28.9569,84.56 29.5,84.5 Z"/></g>
<g><path style="opacity:1" fill="#70690c" d="M 77.5,84.5 C 82.6405,85.4881 87.9738,85.8214 93.5,85.5C 88.2542,86.6479 82.2542,86.8145 75.5,86C 76.0442,85.2828 76.7109,84.7828 77.5,84.5 Z"/></g>
<g><path style="opacity:1" fill="#736c0c" d="M 112.5,84.5 C 122.987,85.4944 133.654,85.8278 144.5,85.5C 133.341,86.6593 122.008,86.8259 110.5,86C 111.044,85.2828 111.711,84.7828 112.5,84.5 Z"/></g>
<g><path style="opacity:0.006" fill="#fefffe" d="M 199.5,93.5 C 199.5,101.167 199.5,108.833 199.5,116.5C 198.444,111.864 197.777,107.031 197.5,102C 197.36,98.8502 198.027,96.0169 199.5,93.5 Z"/></g>
<g><path style="opacity:1" fill="#23211c" d="M 115.5,111.5 C 115.5,112.167 115.5,112.833 115.5,113.5C 110.942,112.179 106.275,111.346 101.5,111C 106.714,110.133 109.048,106.967 108.5,101.5C 102.709,100.489 97.8755,102.156 94,106.5C 84.9377,104.007 75.771,103.841 66.5,106C 64.5,107 62.5,108 60.5,109C 59.1667,110 59.1667,111 60.5,112C 55.7421,113.251 51.2421,115.085 47,117.5C 46.4092,118.483 46.7425,119.15 48,119.5C 49.1618,118.813 50.3284,118.647 51.5,119C 48.3323,123.161 49.3323,125.661 54.5,126.5C 55.2778,127.156 55.9444,127.989 56.5,129C 56.1639,130.03 55.4972,130.53 54.5,130.5C 53.2505,129.222 51.7505,128.222 50,127.5C 48.6686,124.166 46.8353,121.166 44.5,118.5C 48.1463,114.275 52.813,111.942 58.5,111.5C 58.2965,109.61 58.9632,108.11 60.5,107C 71.1342,102.593 82.1342,101.427 93.5,103.5C 98.7121,100.448 104.379,99.1143 110.5,99.5C 110.85,103.054 110.184,106.388 108.5,109.5C 110.707,110.635 113.04,111.301 115.5,111.5 Z"/></g>
<g><path style="opacity:1" fill="#f7f7f7" d="M 115.5,113.5 C 117.512,114.228 119.512,115.062 121.5,116C 123.211,117.133 123.711,118.633 123,120.5C 114.667,127.167 106.333,133.833 98,140.5C 98.1349,138.575 98.3016,136.575 98.5,134.5C 99.6943,130.611 99.5277,126.611 98,122.5C 97.5012,126.486 97.3345,130.486 97.5,134.5C 96.8574,139.314 94.1908,142.48 89.5,144C 85.3889,145.891 81.0556,146.891 76.5,147C 74.2379,148.047 72.0712,149.213 70,150.5C 68.5104,149.318 67.1771,148.318 66,147.5C 65.6924,148.308 65.1924,148.975 64.5,149.5C 59.0268,145.704 59.3601,142.87 65.5,141C 68.8333,140.667 72.1667,140.333 75.5,140C 77.5057,134.348 76.5057,129.348 72.5,125C 66.4751,124.947 60.4751,125.447 54.5,126.5C 49.3323,125.661 48.3323,123.161 51.5,119C 50.3284,118.647 49.1618,118.813 48,119.5C 46.7425,119.15 46.4092,118.483 47,117.5C 51.2421,115.085 55.7421,113.251 60.5,112C 59.1667,111 59.1667,110 60.5,109C 62.5,108 64.5,107 66.5,106C 75.771,103.841 84.9377,104.007 94,106.5C 97.8755,102.156 102.709,100.489 108.5,101.5C 109.048,106.967 106.714,110.133 101.5,111C 106.275,111.346 110.942,112.179 115.5,113.5 Z"/></g>
<g><path style="opacity:1" fill="#1d1d1a" d="M 100.5,104.5 C 101.867,106.093 101.534,107.426 99.5,108.5C 99.1667,108.333 98.8333,108.167 98.5,108C 99.8228,107.184 100.489,106.017 100.5,104.5 Z"/></g>
<g><path style="opacity:1" fill="#141412" d="M 67.5,109.5 C 72.5321,110.535 72.3655,111.869 67,113.5C 66.1667,113.167 65.3333,112.833 64.5,112.5C 65.3398,111.265 66.3398,110.265 67.5,109.5 Z"/></g>
<g><path style="opacity:0.004" fill="#fefffe" d="M 199.5,118.5 C 199.5,120.5 199.5,122.5 199.5,124.5C 198.167,122.5 198.167,120.5 199.5,118.5 Z"/></g>
<g><path style="opacity:0.05" fill="#fefefe" d="M 199.5,125.5 C 199.5,139.167 199.5,152.833 199.5,166.5C 198.167,166.5 197.5,165.833 197.5,164.5C 197.584,154.351 197.751,144.017 198,133.5C 198.183,130.635 198.683,127.969 199.5,125.5 Z"/></g>
<g><path style="opacity:1" fill="#4f4f49" d="M 98.5,134.5 C 98.1667,134.5 97.8333,134.5 97.5,134.5C 97.3345,130.486 97.5012,126.486 98,122.5C 99.5277,126.611 99.6943,130.611 98.5,134.5 Z"/></g>
<g><path style="opacity:1" fill="#6e6813" d="M 13.5,137.5 C 28.1294,139.484 43.1294,140.15 58.5,139.5C 43.3424,140.496 28.0091,140.83 12.5,140.5C 12.2627,139.209 12.596,138.209 13.5,137.5 Z"/></g>
<g><path style="opacity:1" fill="#6e6813" d="M 185.5,137.5 C 186.404,138.209 186.737,139.209 186.5,140.5C 160.825,140.833 135.158,140.5 109.5,139.5C 109.624,138.893 109.957,138.56 110.5,138.5C 122.829,139.167 135.329,139.5 148,139.5C 160.852,139.499 173.352,138.832 185.5,137.5 Z"/></g>
<g><path style="opacity:0.021" fill="#fefefe" d="M -0.5,144.5 C 0.925554,146.679 1.59222,149.179 1.5,152C 0.499321,156.337 0.499321,160.504 1.5,164.5C 1.01044,167.655 0.343778,170.655 -0.5,173.5C -0.5,163.833 -0.5,154.167 -0.5,144.5 Z"/></g>
<g><path style="opacity:1" fill="#005f2a" d="M 11.5,145.5 C 27.1702,145.333 42.8369,145.5 58.5,146C 61.1522,149.496 64.4856,151.996 68.5,153.5C 71.5273,152.639 74.194,151.139 76.5,149C 79.2272,148.182 81.8938,148.348 84.5,149.5C 71.5699,160.926 57.9033,171.426 43.5,181C 36.2584,181.881 30.5917,179.215 26.5,173C 23,172.5 21.5,174 22,177.5C 31.0312,189.875 41.8645,191.708 54.5,183C 70.1667,170.667 85.8333,158.333 101.5,146C 130.165,145.5 158.831,145.333 187.5,145.5C 188.619,153.163 189.785,160.83 191,168.5C 191.667,175.833 191.667,183.167 191,190.5C 187.866,201.297 180.7,207.464 169.5,209C 147.5,209.333 125.5,209.667 103.5,210C 100.607,213.089 97.6068,213.089 94.5,210C 72.1667,209.667 49.8333,209.333 27.5,209C 17.4334,206.6 10.9334,200.434 8,190.5C 7.33333,183.167 7.33333,175.833 8,168.5C 9.21467,160.83 10.3813,153.163 11.5,145.5 Z"/></g>
<g><path style="opacity:0.022" fill="#f7f7f7" d="M -0.5,185.5 C 0.254922,188.053 0.921588,190.72 1.5,193.5C 0.199135,194.884 0.199135,196.384 1.5,198C 0.934056,198.995 0.267389,199.828 -0.5,200.5C -0.5,195.5 -0.5,190.5 -0.5,185.5 Z"/></g>
<g><path style="opacity:0.023" fill="#f5f5f5" d="M 199.5,187.5 C 199.5,194.833 199.5,202.167 199.5,209.5C 197.897,204.187 197.23,198.854 197.5,193.5C 197.875,191.302 198.542,189.302 199.5,187.5 Z"/></g>
<g><path style="opacity:0.404" fill="#4e4e4e" d="M 174.5,215.5 C 173.048,216.302 171.382,216.802 169.5,217C 148.169,217.5 126.836,217.667 105.5,217.5C 128.344,216.759 151.344,216.092 174.5,215.5 Z"/></g>
<g><path style="opacity:0.024" fill="#fefefe" d="M 97.5,221.5 C 98.8333,222.833 100.167,222.833 101.5,221.5C 127.366,221.675 153.366,222.342 179.5,223.5C 123.167,223.5 66.8333,223.5 10.5,223.5C 39.6533,222.736 68.6533,222.07 97.5,221.5 Z"/></g>
<g><path style="opacity:0.004" fill="#fefffe" d="M 181.5,223.5 C 182.167,222.167 182.833,222.167 183.5,223.5C 182.833,223.5 182.167,223.5 181.5,223.5 Z"/></g>
</svg>
