<?xml version="1.0" encoding="utf-8"?>
<!-- Generator: Adobe Illustrator 23.1.0, SVG Export Plug-In . SVG Version: 6.00 Build 0)  -->
<svg version="1.1" id="Layer_1" xmlns="http://www.w3.org/2000/svg" xmlns:xlink="http://www.w3.org/1999/xlink" x="0px" y="0px"
	 viewBox="0 0 600 600" style="enable-background:new 0 0 600 600;" xml:space="preserve">
<style type="text/css">
	.st0{fill:#FFFFFF;}
</style>
<g>
	<path d="M28.9,102.5c2.3,2.7,4.7,5.4,7,8.2c12.2,14.8,27.8,23.1,46.7,25.7c19.6,2.7,38-1.2,56-8.6c13.2-5.4,24.9-13.1,36-21.9
		c9.8-7.9,18-17.2,25.1-27.6c8.5-12.5,14.7-26,17-41c0.9-6.1,1.2-12.3,1.7-18.4c0.1-1.2,0-2.5,0-3.8c54.5,0,108.9,0,163.4,0
		c0,1.8,0,3.4,0,5.1c-0.6,17.7,4.5,34.1,13.2,49.1c19,33,47.3,54.5,84.1,64.5c19,5.2,38,5.4,56.7-1.7c10.6-4.1,19.8-10.4,27.2-19.2
		c3-3.5,6-7,9.4-10.9c0.1,1.3,0.2,1.9,0.2,2.5c0.3,28.6-0.1,57.3-2.1,85.9c-0.9,12.4-2.3,24.8-4,37.1c-2.2,15.9-4.3,31.9-7.4,47.6
		c-7,35.9-16.7,71.1-31.6,104.6c-7.4,16.7-14.7,33.5-24.7,49c-10.8,16.7-21.5,33.5-34.8,48.4c-10.5,11.8-21.7,23.1-33,34.1
		c-21.1,20.5-44.8,37.8-69.9,53c-19.5,11.8-40.1,21.9-60.1,32.7c-3.3,1.8-6.5,1.8-9.9,0c-14.1-7.5-28.3-14.9-42.3-22.5
		c-15.2-8.2-29.9-17.2-43.9-27.3c-14-10.1-27.8-20.4-40.4-32.2c-18.3-17.1-35.7-35-50.5-55.3C93.4,425.8,74.5,389.1,61,349.7
		c-9.7-28.3-17.1-57.2-21.7-86.7c-3-18.9-5.7-37.8-7.7-56.9c-1.6-14.8-2.2-29.6-2.6-44.5c-0.6-18.6-0.5-37.3-0.8-56c0-1,0-1.9,0-2.9
		C28.3,102.7,28.6,102.6,28.9,102.5z M261.9,24.4c0,1.4,0,2.6,0,3.7c0,56.6,0,113.2,0,169.9c0,0.7,0.2,1.5-0.1,2.2
		c-0.2,0.7-0.7,1.7-1.3,1.9c-11.5,4.3-21.6,11-31,18.6c-11.8,9.4-20.2,21.6-27.2,34.9c-10.3,19.5-13.4,40.3-10.8,61.9
		c2.4,19.9,9.7,37.9,22,53.8c11.7,15.1,26.5,26.3,44,33.9c4.4,1.9,4.4,1.8,4.4,6.6c0,50.1,0.1,100.2-0.1,150.3
		c0,4.5,0.9,6.8,5.3,8.8c9.8,4.5,19.3,9.7,28.7,14.9c3.1,1.7,5.7,1.7,8.7,0c10.4-5.5,20.9-10.9,31.4-16.2c1.9-1,2.5-2,2.5-4.1
		c-0.1-51.7,0-103.3-0.1-155c0-2.4,0.7-3.8,2.9-4.8c4.3-1.9,8.7-3.7,12.8-5.9c10.6-5.9,20-13.5,27.9-22.7
		c21.5-25,31.1-53.9,26.8-86.8c-2.7-20.5-10.2-39.1-23.7-55.1c-12.2-14.4-26.5-25.6-44.1-32.5c-2-0.8-2.5-1.7-2.5-3.7
		c0.1-57.1,0-114.2,0-171.4c0-1,0-2.1,0-3.3C312.8,24.4,287.5,24.4,261.9,24.4z M185.1,515.7c0-135.5,0-270.5,0-405.7
		c-22.2,19.4-47.2,32.2-76.4,36.3c0,1.4,0,2.5,0,3.6c0,90.9,0,181.8-0.1,272.6c0,3.7,1,6.9,2.9,10c10,15.5,20.9,30.3,33.3,44
		c10.4,11.5,21.7,22.1,32.8,33C179.8,511.7,182.4,513.5,185.1,515.7z M491,146.1c-2-0.2-3.7-0.3-5.3-0.6c-13.4-2.3-26-7.3-38.1-13.3
		c-10.6-5.2-20.1-12.3-29.3-19.7c-0.9-0.7-2-1.3-3.2-2.1c0,135.2,0,270.1,0,405.3c1.1-0.9,2-1.5,2.8-2.1c4.7-4.2,9.5-8.5,14.2-12.8
		c11.8-10.8,22.4-22.6,32.1-35.3c8.2-10.7,16-21.6,24-32.4c2.2-3,2.9-6.2,2.9-9.9c-0.1-91.2-0.1-182.4-0.1-273.6
		C491,148.5,491,147.4,491,146.1z"/>
	<path class="st0" d="M261.9,24.4c25.6,0,50.9,0,76.5,0c0,1.2,0,2.2,0,3.3c0,57.1,0,114.2,0,171.4c0,2,0.5,2.9,2.5,3.7
		c17.6,6.9,32,18.1,44.1,32.5c13.5,16,21,34.7,23.7,55.1c4.4,32.9-5.3,61.8-26.8,86.8c-7.9,9.2-17.3,16.7-27.9,22.7
		c-4.1,2.3-8.5,4-12.8,5.9c-2.1,1-2.9,2.4-2.9,4.8c0.1,51.7,0,103.3,0.1,155c0,2.1-0.6,3.1-2.5,4.1c-10.5,5.3-21,10.7-31.4,16.2
		c-3.1,1.6-5.7,1.6-8.7,0c-9.5-5.2-18.9-10.4-28.7-14.9c-4.3-2-5.3-4.3-5.3-8.8c0.2-50.1,0.1-100.2,0.1-150.3c0-4.8,0-4.7-4.4-6.6
		c-17.6-7.5-32.3-18.7-44-33.9c-12.3-15.9-19.6-34-22-53.8c-2.6-21.6,0.5-42.4,10.8-61.9c7-13.3,15.4-25.4,27.2-34.9
		c9.5-7.6,19.5-14.4,31-18.6c0.6-0.2,1.1-1.2,1.3-1.9c0.2-0.7,0.1-1.5,0.1-2.2c0-56.6,0-113.2,0-169.9
		C261.9,27,261.9,25.9,261.9,24.4z M300.2,407.6c4.9,0,9.8,0.7,14.6-0.1c18.1-3,34.8-9.5,49.2-21.1c31.3-25.3,43.7-58.4,39.1-98
		c-1.9-16.1-8.6-30.6-18.1-43.6c-24.8-33.9-58.6-48.4-100-43.1c-26.5,3.3-48.3,16.6-65.2,37.3c-15.8,19.4-23.7,41.6-23.3,66.9
		c0.2,14.6,3.3,28.3,9.1,41.5C221.1,383.6,263.5,410.9,300.2,407.6z"/>
	<path class="st0" d="M185.1,515.7c-2.7-2.2-5.3-4-7.4-6.2c-11-10.9-22.4-21.5-32.8-33c-12.3-13.7-23.3-28.5-33.3-44
		c-2-3.1-2.9-6.2-2.9-10c0.1-90.9,0.1-181.8,0.1-272.6c0-1.1,0-2.3,0-3.6c29.2-4.1,54.2-16.9,76.4-36.3
		C185.1,245.3,185.1,380.2,185.1,515.7z"/>
	<path class="st0" d="M491,146.1c0,1.3,0,2.5,0,3.6c0,91.2,0,182.4,0.1,273.6c0,3.7-0.7,7-2.9,9.9c-8,10.8-15.8,21.7-24,32.4
		c-9.7,12.7-20.4,24.5-32.1,35.3c-4.7,4.3-9.4,8.5-14.2,12.8c-0.8,0.7-1.6,1.3-2.8,2.1c0-135.3,0-270.1,0-405.3
		c1.2,0.8,2.2,1.4,3.2,2.1c9.3,7.3,18.7,14.4,29.3,19.7c12.2,6,24.7,11,38.1,13.3C487.4,145.7,489,145.8,491,146.1z"/>
	<path d="M300.2,407.6c-36.7,3.3-79.1-24-94.8-60.3c-5.7-13.2-8.8-26.9-9.1-41.5c-0.4-25.3,7.5-47.5,23.3-66.9
		c16.9-20.7,38.7-33.9,65.2-37.3c41.4-5.2,75.2,9.3,100,43.1c9.5,13,16.2,27.5,18.1,43.6c4.6,39.6-7.8,72.7-39.1,98
		c-14.4,11.6-31.1,18.1-49.2,21.1C310,408.3,305.1,407.6,300.2,407.6z M397.9,303.8c2.6-43.6-37.1-96.9-97.4-97.7
		c-44.1-0.6-97.7,34.8-98.6,96.8c-0.8,54.3,43.6,99.2,96.3,99.8C362.4,403.3,401.2,347,397.9,303.8z"/>
	<path class="st0" d="M397.9,303.8c3.3,43.2-35.5,99.5-99.6,98.8c-52.7-0.5-97.1-45.5-96.3-99.8c0.9-62,54.5-97.4,98.6-96.8
		C360.9,206.9,400.6,260.2,397.9,303.8z M250.3,314.5c8.3,0,16.4,0,24.8,0c0,11.9,0,23.5,0,35.2c4,0,7.8,0,11.6,0
		c-0.3-34.6-0.7-69-1-103.9c-18.6,4.4-33.2,13.8-41.8,30.9c-10.9,21.7-8.5,42.4,6.1,62.2c2.9-2.2,5.8-4.4,8.9-6.7
		C256.1,326.3,250.7,321.7,250.3,314.5z M334.8,379.6c-1.1-2.5-2.4-5.2-3.4-8c-0.6-1.5-1.4-1.8-2.8-1.3c-3.3,1.1-6.6,2.1-9.9,3.1
		c-5.2,1.6-10.4,2.9-16.1,2.5c0-47.9,0-95.6,0-143.5c1.1,0,2-0.1,2.8,0c5.7,0.6,11.5,1.4,16.8,3.7c1.5,0.7,3.1,1.2,4.7,1.6
		c0.6,0.1,1.8-0.1,2.1-0.5c1.4-3,2.7-6.1,3.9-9c-13.4-5.9-27.1-8.6-41.4-6.2c0,55.1,0,110.1,0,164.8
		C306.6,388.8,320.8,385.9,334.8,379.6z M285.7,374.6c-33.1-6.9-54.7-34.5-57.3-63.8c-3-32.8,18.1-67.4,57.3-77c0-3.7,0-7.5,0-11.3
		c-37.7,7-72.4,41-68.2,89.9c3.4,39.9,35.8,68.9,68.2,73.3C285.7,382.1,285.7,378.4,285.7,374.6z M353,256.6
		c0.2-0.1,0.4-0.3,0.6-0.4c5.5,5.6,9,12.5,12.4,19.8c3.4-1.4,6.7-2.8,10.5-4.4c-7.3-17-19.1-29.5-34.5-39.5c0,48.4,0,96.2,0,144.1
		c0.3,0,0.5,0.1,0.6,0c0.6-0.3,1.2-0.6,1.7-1c10.3-7,19.2-15.4,25.8-26c1.7-2.8,3.4-5.6,5.1-8.5c0.7-1.2,0.8-2.4-0.7-3.2
		c-2.8-1.4-5.7-2.7-8.5-4c-3.6,7-7.2,13.5-13,19.3C353,320.2,353,288.4,353,256.6z"/>
	<path d="M250.3,314.5c0.5,7.2,5.8,11.8,8.6,17.8c-3,2.3-6,4.5-8.9,6.7c-14.7-19.9-17-40.6-6.1-62.2c8.6-17.2,23.2-26.5,41.8-30.9
		c0.3,34.9,0.7,69.3,1,103.9c-3.8,0-7.6,0-11.6,0c0-11.6,0-23.3,0-35.2C266.7,314.5,258.6,314.5,250.3,314.5z M274.5,303.1
		c0-13.7,0-27.3,0-40.9c-11.8,1.2-28.6,28.3-25.5,40.9C257.5,303.1,265.9,303.1,274.5,303.1z"/>
	<path d="M334.8,379.6c-13.9,6.3-28.1,9.2-43.3,7.2c0-54.7,0-109.7,0-164.8c14.3-2.3,28,0.3,41.4,6.2c-1.3,2.9-2.5,6-3.9,9
		c-0.2,0.4-1.4,0.7-2.1,0.5c-1.6-0.4-3.2-0.9-4.7-1.6c-5.4-2.4-11.1-3.1-16.8-3.7c-0.9-0.1-1.8,0-2.8,0c0,47.9,0,95.6,0,143.5
		c5.7,0.4,10.9-0.9,16.1-2.5c3.3-1,6.6-2,9.9-3.1c1.4-0.5,2.2-0.3,2.8,1.3C332.4,374.4,333.7,377.1,334.8,379.6z"/>
	<path d="M285.7,374.6c0,3.8,0,7.5,0,11.2c-32.4-4.4-64.8-33.4-68.2-73.3c-4.2-48.9,30.5-83,68.2-89.9c0,3.8,0,7.5,0,11.3
		c-39.2,9.5-60.2,44.2-57.3,77C231,340.1,252.6,367.7,285.7,374.6z"/>
	<path d="M353,256.6c0,31.8,0,63.6,0,96.2c5.8-5.8,9.4-12.3,13-19.3c2.8,1.3,5.7,2.6,8.5,4c1.5,0.7,1.3,2,0.7,3.2
		c-1.7,2.8-3.3,5.7-5.1,8.5c-6.6,10.6-15.5,19-25.8,26c-0.5,0.4-1.1,0.7-1.7,1c-0.1,0.1-0.3,0-0.6,0c0-47.8,0-95.6,0-144.1
		c15.4,10,27.2,22.5,34.5,39.5c-3.8,1.6-7.1,3-10.5,4.4c-3.4-7.2-6.9-14.1-12.4-19.8C353.3,256.3,353.1,256.5,353,256.6z"/>
	<path class="st0" d="M274.5,303.1c-8.6,0-17,0-25.5,0c-3.1-12.5,13.7-39.6,25.5-40.9C274.5,275.8,274.5,289.4,274.5,303.1z"/>
</g>
</svg>
