<?xml version="1.0" encoding="utf-8"?>
<!-- Generator: Adobe Illustrator 21.1.0, SVG Export Plug-In . SVG Version: 6.00 Build 0)  -->
<svg version="1.1" id="Layer_1" xmlns="http://www.w3.org/2000/svg" xmlns:xlink="http://www.w3.org/1999/xlink" x="0px" y="0px"
	 viewBox="0 0 500 500" style="enable-background:new 0 0 500 500;" xml:space="preserve">
<style type="text/css">
	.st0{fill:#1F3C92;}
	.st1{fill:#FFFFFF;}
	.st2{fill:#E51B23;}
</style>
<g>
	<path class="st0" d="M250,497.7c-39.6-19.4-80.4-49.5-112.9-84.2c-29.3-31.4-52.2-67.8-65-111.1c-5.4-18.3-9-37.7-10.3-58.4
		c15.3-8.6,49.9-26.2,62.3-57.2l0,0l22.1,0l0,0c-7.8-4.3-29.6-29.3-29.1-60.1c0.7-39.3,23.7-51.4,23.3-83.8
		c-0.1-10.8-1.7-23.5-9.1-39c15.7,7.4,26.1,13.9,49,13.9c27.1,0.1,35.2-10.7,69.5-11.2c34.3,0.6,42.4,11.3,69.5,11.2
		c22.9-0.1,33.3-6.5,49-13.9c-7.4,15.4-8.9,28.2-9.1,39c-0.4,32.4,22.7,44.5,23.3,83.8c0.5,30.8-21.3,55.8-29.1,60.1l0,0l22.1,0l0,0
		c12.4,31,47,48.5,62.3,57.2c-1.3,20.7-4.9,40.1-10.3,58.4c-12.8,43.3-35.7,79.7-65,111.1C330.4,448.2,289.6,478.3,250,497.7
		L250,497.7z"/>
	<path class="st1" d="M250,487.1c-52.1-28-103.2-68.3-137.3-120c-22.5-34.3-37.6-73.5-40.4-117.6c14.2-8.2,44.6-23.9,57.8-53.6l0,0
		l18-0.1l7.1-6.2l0-7.8l0,0c-7.9-4.3-28.8-27.3-28.4-56.6c0.5-31.7,23.4-47.6,23.3-81.8c0-4-0.1-13.7-2.2-21.7
		c11,4.3,23.9,5.7,33.9,5.7c24.2,0,44.2-11.2,68.2-11.3c24,0.2,44,11.3,68.2,11.3c10,0,22.9-1.4,33.9-5.7c-2,8.1-2.2,17.8-2.2,21.7
		c-0.1,34.1,22.8,50,23.3,81.8c0.5,29.2-20.5,52.2-28.4,56.6l0,0l0,7.8l7.1,6.2l18,0.1l0,0c13.3,29.7,43.7,45.3,57.8,53.6
		c-2.9,44.1-17.9,83.4-40.4,117.6C353.2,418.9,302.1,459.1,250,487.1L250,487.1z"/>
	<path class="st0" d="M250,471.6c-47.2-24.5-95.5-64.2-127.5-114c-19.5-30.4-33-64.6-36.5-101.4c8.5-4.7,32.7-16.9,49.6-43.5l0,0
		l114.5,26l114.5-26l0,0c16.9,26.6,41.1,38.8,49.6,43.5C404.8,353.5,325.9,432.1,250,471.6L250,471.6z"/>
	<path class="st1" d="M258.2,251.6l0,36.3c0,0,11.5,0,15.5,0c0,6,0,80.3,0,80.3c0,5-1.4,8.8-4,11.5c-2.8,2.8-6.9,4.1-12.3,4.1
		l-14.8,0c-5.4,0.1-9.5-1.3-12.3-4.1c-2.7-2.6-4-6.5-4-11.5c0,0,0-74.4,0-80.3c4,0,15.5,0,15.5,0l0-39.6l-86.2,0v39.5
		c0,0,12.8,0,17,0c0,6,0,96.7,0,96.7l44.3,43.3l66.1,0l44.3-43.3c0,0,0-90.6,0-96.7c4.2,0,17,0,17,0v-39.5l-86.2,0L258.2,251.6z"/>
	<path class="st2" d="M250,76.1c-28.8-20.3-51.2-27.2-71.1-29.8c15.9-11.1,45.6-22.7,71.1-21.5c25.5-1.2,55.2,10.4,71.1,21.5
		C301.2,48.9,278.8,55.8,250,76.1L250,76.1z"/>
	<path class="st2" d="M250,211l-47-10.7l0,0c7.9-4.9,23.1-26,22-47.8c-11,7.9-24.9,12.7-38.4,12.7c-22.5,0.1-43.3-12.1-43.3-41.4
		c0-25.8,21.1-32.4,20.6-54.6c-0.1-3.6-0.7-7.7-2.2-12.3c41-1.1,68.6,19.4,88.3,40.6c19.6-21.2,47.2-41.6,88.3-40.6
		c-1.4,4.6-2.1,8.7-2.2,12.3c-0.5,22.2,20.6,28.8,20.6,54.6c0,29.3-20.7,41.5-43.3,41.4c-13.5-0.1-27.3-4.8-38.4-12.7
		c-1.1,21.8,14.2,42.8,22,47.8l0,0L250,211L250,211z"/>
	<path class="st1" d="M196.5,90.9c15.1,0,27.5,12,27.5,26.8c0,14.7-12.4,26.8-27.5,26.8c-15.1,0-27.5-12-27.5-26.8
		C169,102.9,181.3,90.9,196.5,90.9L196.5,90.9z"/>
	<path class="st1" d="M303.5,90.9c-15.1,0-27.5,12-27.5,26.8c0,14.7,12.4,26.8,27.5,26.8c15.1,0,27.5-12,27.5-26.8
		C331,102.9,318.7,90.9,303.5,90.9L303.5,90.9z"/>
	<polygon class="st2" points="250,217.1 158.1,196.2 152.1,201.8 143.8,201.8 140.4,206.9 250,231.8 359.6,206.9 356.2,201.8 
		347.9,201.8 341.9,196.2 250,217.1 	"/>
</g>
</svg>
