<?xml version="1.0" encoding="utf-8"?>
<!-- Generator: Adobe Illustrator 27.9.2, SVG Export Plug-In . SVG Version: 6.00 Build 0)  -->
<svg version="1.1" id="Layer_1" xmlns="http://www.w3.org/2000/svg" xmlns:xlink="http://www.w3.org/1999/xlink" x="0px" y="0px"
	 viewBox="0 0 512 512" style="enable-background:new 0 0 512 512;" xml:space="preserve">
<style type="text/css">
	.st0{fill:#010101;}
	.st1{fill:#FFFFFF;}
	.st2{fill:#FFD71F;}
</style>
<path class="st0" d="M426.8,210.1l-17.3,0L426.8,210.1l0-19l-22.2-22.2c5.7-6.9,8.8-16,8.2-25.6c-0.8-11.3-6.5-21.1-15.2-27.2
	c3.5-7.9,3.7-17.1-0.1-25.5c-4-9-12-15.4-21.1-17.7c0.9-8.8-2-17.7-8.3-24.5c-6.3-6.8-15-10.2-23.8-10c-1.9-8.7-7.5-16.6-15.8-21
	c-7.9-4.2-17-4.8-25.1-2c-4.5-7.6-12.2-13.2-21.5-14.9c-10.2-1.8-20.1,1.4-27.1,8c-7-6.6-17-9.8-27.1-8c-9.3,1.7-17,7.3-21.5,14.9
	c-8.1-2.8-17.2-2.2-25.1,2c-8.2,4.4-13.9,12.3-15.8,21c-8.8-0.2-17.5,3.2-23.8,10c-6.4,6.8-9.2,15.8-8.3,24.5
	C124,75.3,116,81.6,112,90.6c-3.7,8.4-3.5,17.6-0.1,25.5c-8.7,6.1-14.5,15.9-15.2,27.2c-0.7,10.2,2.9,19.8,9.4,26.9l-20.8,20.8l0,19
	c0,70.4,0,121.3,28.1,174.3c20.2,38,48.5,71.1,81.8,95.6c25.9,19.1,46.4,26.8,48.7,27.6L256,512l12.2-4.4
	c2.3-0.8,22.8-8.5,48.7-27.6c33.3-24.5,61.6-57.6,81.8-95.6C426.8,331.4,426.8,280.5,426.8,210.1z"/>
<path class="st1" d="M409.5,210.1l0-11.9l-28-28c0.3-2.1,0.5-4.2,0.6-6.4c8.3-2.5,14-10.4,13.4-19.3c-0.6-9-7.4-16.1-15.9-17.4
	c-0.9-4-1.9-8-3.2-11.8c5.8-3.7,8.1-11.2,5.2-17.6c-2.9-6.5-10-9.7-16.6-7.9c-2.5-4.2-5.2-8.3-8.1-12.1c3.5-5.3,3-12.5-1.5-17.4
	c-4.5-4.9-11.7-5.8-17.2-2.7c-3.5-3-7.2-5.9-11-8.5c1.8-6.3-0.9-13.2-6.9-16.4c-6-3.2-13.2-1.7-17.4,3.2c-4-1.6-8.2-3.1-12.4-4.3
	c0.1-6.8-4.8-12.8-11.6-14c-6.9-1.2-13.6,2.8-15.9,9.2c-2.7-0.2-5.5-0.3-8.2-0.3s-5.5,0.1-8.2,0.3c-2.3-6.4-8.9-10.5-15.9-9.2
	c-6.9,1.2-11.7,7.3-11.6,14c-4.2,1.2-8.4,2.7-12.4,4.3c-4.2-4.9-11.5-6.4-17.4-3.2c-6,3.2-8.7,10.1-6.9,16.4
	c-3.8,2.6-7.5,5.5-11,8.5c-5.5-3.1-12.7-2.2-17.2,2.7c-4.5,4.9-5,12-1.5,17.4c-2.9,3.9-5.6,7.9-8.1,12.1c-6.6-1.8-13.8,1.4-16.6,7.9
	c-2.9,6.5-0.5,13.9,5.2,17.6c-1.2,3.9-2.3,7.8-3.2,11.8c-8.5,1.3-15.3,8.4-15.9,17.4c-0.6,9,5.2,16.9,13.4,19.3
	c0.2,2.9,0.5,5.8,0.9,8.6l-25.8,25.8l0,11.9c0,70.5,0,117,26.1,166.2c46.2,87.1,118,113.9,121.1,115l6.3,2.3l6.3-2.3
	c3-1.1,74.9-28,121.1-115C409.5,327.1,409.5,280.6,409.5,210.1z"/>
<path class="st0" d="M256,448.7c0,0-52.8-14.2-90.3-81.1c-9.2-16.5-15.1-31.6-18.8-47.6c13.4-9.4,52.5-32.6,109-32.6
	s95.6,23.3,109,32.6c-3.7,15.9-9.5,31.1-18.8,47.6C308.8,434.6,256,448.7,256,448.7z"/>
<path class="st2" d="M390.9,205.9L350,165H162l-40.9,40.9c0,70.4-0.5,115.7,23.9,161.6c43.4,81.8,111,106.3,111,106.3
	s67.6-24.5,111-106.3C391.4,321.6,390.9,276.4,390.9,205.9z M162.4,361.3c-7.3-14.1-12.2-27.4-15.4-41.3c3.5-2.4,8.7-5.8,15.4-9.4
	V361.3z M182.9,393.7v-92.6c6.2-2.4,13.1-4.8,20.5-6.8v122C196.7,409.9,189.7,402.5,182.9,393.7z M265.1,287.6c7.2,0.3,14,1,20.5,2
	v144.6c-8.2,5.3-15.3,8.9-20.5,11.1V287.6z M244.6,444.3c-5.5-2.5-12.6-6.2-20.5-11.6V289.9c6.5-1,13.4-1.8,20.5-2.2V444.3z
	 M306.2,418.4V293.7c7.4,1.9,14.3,4.1,20.5,6.5v96.4C319.9,405.1,313,412.3,306.2,418.4z M347.3,365.7v-56.3
	c7.9,4.1,13.8,7.9,17.7,10.6C361.5,335.3,355.9,349.9,347.3,365.7z M370.5,277.7c-3.9-2.6-47.1-30.6-114.5-30.6
	s-110.6,28-114.5,30.6c-0.9-17.5-0.9-37.3-0.9-61.1l32.1-31.4h63.5h39.6h63.5l32.1,31.4C371.4,240.4,371.4,260.2,370.5,277.7z"/>
<circle class="st1" cx="254.7" cy="154.2" r="63"/>
<path class="st0" d="M254.7,82.2c-39.8,0-72,32.2-72,72s32.2,72,72,72s72-32.2,72-72S294.5,82.2,254.7,82.2z M275.1,94.7
	c12.1,4.2,22.6,11.9,30.1,22l-9.3,6.7l-23.4-17.9L275.1,94.7z M271.2,106.8l23.9,18.3l-0.6,15.5l-13.9,4.6l-24.8-18l0.1-15.1
	L271.2,106.8z M254,112.1l-0.1,14.9l-24.8,18l-14.1-4.8l-0.2-16.4l24.8-17L254,112.1z M234.6,94.6l3.5,10.9l-24.3,16.7l-9.4-5.8
	C212,106.4,222.5,98.7,234.6,94.6z M203.2,190.4c-7.1-10.1-11.3-22.3-11.4-35.5l11.5,0.1l8.4,28.3L203.2,190.4z M213.5,182.9
	l-8.6-28.8l9.4-12l13.7,4.6l9.6,29.5l-8.5,11.5L213.5,182.9z M254.7,217.2c-6.5,0-12.9-1-18.8-2.9l3.6-10.9l29.5,0.8l4.2,10.2
	C267.4,216.2,261.2,217.2,254.7,217.2z M269.3,202.3l-30.1-0.8l-8.5-12.7l8.3-11.2h31.3l8.4,11.5L269.3,202.3z M280.1,187.8
	l-8.3-11.4l9.6-29.5l13.9-4.6l9.7,12.9l-10,28.4L280.1,187.8z M296.8,183.9l9.8-27.8l11-0.9c-0.2,13.2-4.5,25.4-11.6,35.5
	L296.8,183.9z"/>
<g>
	<g>
		<g>
			<path class="st0" d="M166.4,125.2L157,118l-10.7,5.1l3.9-11.2l-8.2-8.6l11.9,0.3l5.7-10.4l3.4,11.4l11.7,2.2l-9.8,6.7
				L166.4,125.2z"/>
		</g>
	</g>
	<g>
		<g>
			<path class="st2" d="M149.5,119.4l7.7-3.6l6.7,5.2l-1.1-8.4l7-4.8l-8.3-1.6l-2.4-8.1l-4.1,7.5l-8.5-0.2l5.8,6.2L149.5,119.4z"/>
		</g>
	</g>
</g>
<g>
	<g>
		<g>
			<path class="st0" d="M161.8,155.6l-11.3-3.7l-8.5,8.3l0.1-11.9l-10.5-5.5l11.3-3.6l2-11.7l6.9,9.6l11.7-1.8l-7,9.6L161.8,155.6z"
				/>
		</g>
	</g>
	<g>
		<g>
			<path class="st2" d="M143.9,155.7l6-6l8.1,2.7l-3.8-7.6l5-6.8l-8.4,1.3l-5-6.9l-1.4,8.4l-8.1,2.6l7.5,3.9L143.9,155.7z"/>
		</g>
	</g>
</g>
<g>
	<g>
		<g>
			<path class="st0" d="M180.4,98.4l-6.6-9.9L162,89.9l7.3-9.3l-5-10.8l11.1,4.1l8.7-8.1l-0.4,11.9l10.4,5.8l-11.4,3.3L180.4,98.4z"
				/>
		</g>
	</g>
	<g>
		<g>
			<path class="st2" d="M166.3,87.5l8.4-1l4.7,7l1.7-8.3l8.2-2.3l-7.4-4.1l0.3-8.5l-6.2,5.8l-8-2.9l3.6,7.7L166.3,87.5z"/>
		</g>
	</g>
</g>
<g>
	<g>
		<g>
			<path class="st0" d="M202,77.7l-3.2-11.4l-11.6-2.4l9.9-6.5l-1.3-11.8l9.3,7.4l10.8-4.9l-4.2,11.1l8,8.8l-11.9-0.5L202,77.7z"/>
		</g>
	</g>
	<g>
		<g>
			<path class="st2" d="M192,62.9l8.3,1.7l2.3,8.2l4.2-7.4l8.5,0.4l-5.7-6.3l3-7.9l-7.7,3.5l-6.6-5.3l0.9,8.4L192,62.9z"/>
		</g>
	</g>
</g>
<g>
	<g>
		<g>
			<path class="st0" d="M229,64.9l0.6-11.9l-10.3-6l11.5-3.1l2.5-11.6l6.4,10l11.8-1.2l-7.5,9.2l4.8,10.9L237.9,57L229,64.9z"/>
		</g>
	</g>
	<g>
		<g>
			<path class="st2" d="M224.3,47.7l7.3,4.3l-0.5,8.5l6.3-5.6l7.9,3.1l-3.4-7.8l5.4-6.6l-8.4,0.8l-4.6-7.1l-1.8,8.3L224.3,47.7z"/>
		</g>
	</g>
</g>
<g>
	<g>
		<g>
			<path class="st0" d="M166.4,125.2L157,118l-10.7,5.1l3.9-11.2l-8.2-8.6l11.9,0.3l5.7-10.4l3.4,11.4l11.7,2.2l-9.8,6.7
				L166.4,125.2z"/>
		</g>
	</g>
	<g>
		<g>
			<path class="st2" d="M149.5,119.4l7.7-3.6l6.7,5.2l-1.1-8.4l7-4.8l-8.3-1.6l-2.4-8.1l-4.1,7.5l-8.5-0.2l5.8,6.2L149.5,119.4z"/>
		</g>
	</g>
</g>
<g>
	<g>
		<g>
			<path class="st0" d="M161.8,155.6l-11.3-3.7l-8.5,8.3l0.1-11.9l-10.5-5.5l11.3-3.6l2-11.7l6.9,9.6l11.7-1.8l-7,9.6L161.8,155.6z"
				/>
		</g>
	</g>
	<g>
		<g>
			<path class="st2" d="M143.9,155.7l6-6l8.1,2.7l-3.8-7.6l5-6.8l-8.4,1.3l-5-6.9l-1.4,8.4l-8.1,2.6l7.5,3.9L143.9,155.7z"/>
		</g>
	</g>
</g>
<g>
	<g>
		<g>
			<path class="st0" d="M180.4,98.4l-6.6-9.9L162,89.9l7.3-9.3l-5-10.8l11.1,4.1l8.7-8.1l-0.4,11.9l10.4,5.8l-11.4,3.3L180.4,98.4z"
				/>
		</g>
	</g>
	<g>
		<g>
			<path class="st2" d="M166.3,87.5l8.4-1l4.7,7l1.7-8.3l8.2-2.3l-7.4-4.1l0.3-8.5l-6.2,5.8l-8-2.9l3.6,7.7L166.3,87.5z"/>
		</g>
	</g>
</g>
<g>
	<g>
		<g>
			<path class="st0" d="M202,77.7l-3.2-11.4l-11.6-2.4l9.9-6.5l-1.3-11.8l9.3,7.4l10.8-4.9l-4.2,11.1l8,8.8l-11.9-0.5L202,77.7z"/>
		</g>
	</g>
	<g>
		<g>
			<path class="st2" d="M192,62.9l8.3,1.7l2.3,8.2l4.2-7.4l8.5,0.4l-5.7-6.3l3-7.9l-7.7,3.5l-6.6-5.3l0.9,8.4L192,62.9z"/>
		</g>
	</g>
</g>
<g>
	<g>
		<g>
			<path class="st0" d="M229,64.9l0.6-11.9l-10.3-6l11.5-3.1l2.5-11.6l6.4,10l11.8-1.2l-7.5,9.2l4.8,10.9L237.9,57L229,64.9z"/>
		</g>
	</g>
	<g>
		<g>
			<path class="st2" d="M224.3,47.7l7.3,4.3l-0.5,8.5l6.3-5.6l7.9,3.1l-3.4-7.8l5.4-6.6l-8.4,0.8l-4.6-7.1l-1.8,8.3L224.3,47.7z"/>
		</g>
	</g>
</g>
<g>
	<g>
		<g>
			<path class="st0" d="M344.6,113.4l-9.8-6.7l11.7-2.2l3.4-11.4l5.7,10.4l11.9-0.3l-8.2,8.6l3.9,11.2l-10.7-5.1l-9.4,7.2
				L344.6,113.4z"/>
		</g>
	</g>
	<g>
		<g>
			<path class="st2" d="M357.1,111.4l5.8-6.2l-8.5,0.2l-4.1-7.5l-2.4,8.1l-8.3,1.6l7,4.8l-1.1,8.4l6.7-5.2l7.7,3.6L357.1,111.4z"/>
		</g>
	</g>
</g>
<g>
	<g>
		<g>
			<path class="st0" d="M353,145l-7-9.6l11.7,1.8l6.9-9.6l2,11.7l11.3,3.6l-10.5,5.5l0.1,11.9l-8.5-8.3l-11.3,3.7L353,145z"/>
		</g>
	</g>
	<g>
		<g>
			<path class="st2" d="M365.5,147.2l7.5-3.9l-8.1-2.6l-1.4-8.4l-5,6.9l-8.4-1.3l5,6.8l-3.8,7.6l8.1-2.7l6,6L365.5,147.2z"/>
		</g>
	</g>
</g>
<g>
	<g>
		<g>
			<path class="st0" d="M326.7,86.7l-11.4-3.3l10.4-5.8l-0.4-11.9l8.7,8.1l11.1-4.1l-5,10.8l7.3,9.3l-11.8-1.4l-6.6,9.9L326.7,86.7z
				"/>
		</g>
	</g>
	<g>
		<g>
			<path class="st2" d="M338,80.8l3.6-7.7l-8,2.9l-6.2-5.8l0.3,8.5l-7.4,4.1l8.2,2.3l1.7,8.3l4.7-7l8.4,1L338,80.8z"/>
		</g>
	</g>
</g>
<g>
	<g>
		<g>
			<path class="st0" d="M301.6,67.4l-11.9,0.5l8-8.8L293.5,48l10.8,4.9l9.3-7.4l-1.3,11.8l9.9,6.5l-11.6,2.4l-3.2,11.4L301.6,67.4z"
				/>
		</g>
	</g>
	<g>
		<g>
			<path class="st2" d="M310.4,58.2l0.9-8.4l-6.6,5.3l-7.7-3.5l3,7.9l-5.7,6.3l8.5-0.4l4.2,7.4l2.3-8.2l8.3-1.7L310.4,58.2z"/>
		</g>
	</g>
</g>
<g>
	<g>
		<g>
			<path class="st0" d="M271.6,57l-11.1,4.3l4.8-10.9l-7.5-9.2l11.8,1.2l6.4-10l2.5,11.6l11.5,3.1l-10.3,6l0.6,11.9L271.6,57z"/>
		</g>
	</g>
	<g>
		<g>
			<path class="st2" d="M277,45.5l-1.8-8.3l-4.6,7.1l-8.4-0.8l5.4,6.6l-3.4,7.8l7.9-3.1l6.3,5.6l-0.5-8.5l7.3-4.3L277,45.5z"/>
		</g>
	</g>
</g>
<g>
	<g>
		<path class="st0" d="M153.7,301.6l-6.1-10.9l2.9-1.6c2-1.1,3.9-1.5,5.6-1.2c1.7,0.3,3,1.3,3.9,3c0.6,1,0.8,2,0.8,3.1
			c0,1-0.3,2.1-0.9,3.1c-0.3,0.6-0.8,1.1-1.3,1.5c-0.5,0.5-1.2,0.9-2.1,1.4L153.7,301.6z M154.9,297.8l0.6-0.3
			c1.1-0.6,1.9-1.4,2.2-2.3c0.3-0.9,0.2-1.8-0.3-2.8c-0.5-1-1.3-1.6-2.2-1.8s-2,0-3.1,0.6l-0.6,0.3L154.9,297.8z"/>
		<path class="st0" d="M165.2,295.3l-5.4-11.3l6.9-3.3l1.1,2.3l-4.3,2.1l1,2l3.7-1.8l1.1,2.3l-3.7,1.8l1.1,2.2l4.4-2.1l1.1,2.4
			L165.2,295.3z"/>
		<path class="st0" d="M174.6,290.9l-4.8-11.5l3-1.2c0.9-0.4,1.7-0.6,2.2-0.7c0.6-0.1,1.1-0.1,1.7,0.1c0.6,0.1,1,0.4,1.5,0.8
			c0.4,0.4,0.8,0.8,1,1.3c0.5,1.2,0.5,2.2-0.1,3.3c-0.5,1-1.5,1.8-2.9,2.4l-0.3,0.1c-0.1,0-0.2,0.1-0.2,0.1l1.8,4.2L174.6,290.9z
			 M173.8,280.2l-0.4,0.2l1.3,3.1l0.5-0.2c0.7-0.3,1.2-0.6,1.4-1.1c0.3-0.4,0.3-0.9,0.1-1.4c-0.2-0.5-0.6-0.8-1-0.9
			c-0.2,0-0.5,0-0.8,0C174.6,280,174.2,280.1,173.8,280.2z"/>
		<path class="st0" d="M181.8,281.2c-0.3-0.9-0.4-1.7-0.4-2.6c0-0.9,0.2-1.7,0.6-2.5c0.4-0.8,0.8-1.4,1.5-2s1.3-1,2.1-1.3
			c0.8-0.3,1.6-0.4,2.5-0.3c0.8,0,1.7,0.3,2.4,0.6c0.8,0.4,1.4,0.9,2,1.6c0.6,0.7,1,1.4,1.3,2.3c0.3,0.7,0.4,1.5,0.4,2.2
			c0,0.7-0.1,1.4-0.3,2.1c-0.3,1-0.8,1.8-1.5,2.5c-0.7,0.7-1.5,1.2-2.4,1.6c-0.8,0.3-1.6,0.4-2.4,0.3s-1.6-0.3-2.4-0.7
			c-0.8-0.4-1.5-0.9-2-1.6C182.5,282.8,182.1,282.1,181.8,281.2z M184.7,280.2c0.4,1,1,1.8,1.8,2.3c0.8,0.5,1.7,0.6,2.6,0.3
			c0.9-0.3,1.5-0.9,1.9-1.8s0.4-1.9,0-2.9c-0.4-1-1-1.8-1.8-2.3c-0.8-0.5-1.7-0.6-2.6-0.3c-0.9,0.3-1.5,0.9-1.9,1.8
			C184.3,278.2,184.3,279.2,184.7,280.2z"/>
		<path class="st0" d="M198.1,282.2l-3.4-12l3.1-0.9c1-0.3,1.8-0.4,2.3-0.5c0.6,0,1.1,0.1,1.6,0.2s1,0.5,1.4,0.9
			c0.4,0.4,0.7,0.9,0.8,1.4c0.2,0.8,0.2,1.5,0,2.1c-0.2,0.7-0.6,1.3-1.3,1.8l5.1,4.1l-3.3,0.9l-4.5-3.8l-0.4,0.1l1.3,4.7
			L198.1,282.2z M198.6,271.5l-0.5,0.1l0.9,3.3l0.6-0.2c0.7-0.2,1.2-0.5,1.5-0.9c0.3-0.4,0.4-0.9,0.2-1.4c-0.2-0.6-0.5-0.9-0.9-1.1
			C200.1,271.2,199.4,271.2,198.6,271.5z"/>
		<path class="st0" d="M211.8,278.6l-2.2-9.6l-3.9,0.9l-0.6-2.5l10.6-2.4l0.6,2.5l-3.9,0.9l2.2,9.6L211.8,278.6z"/>
		<path class="st0" d="M220.3,276.8l-2.2-12.3l2.9-0.5l2.2,12.3L220.3,276.8z"/>
		<path class="st0" d="M230.8,275.6l-0.2,0l-7.5-12.1l3.1-0.4l3.8,6.4l2-7.2l2.9-0.4L230.8,275.6z"/>
		<path class="st0" d="M236.7,268.1c-0.1-0.9,0-1.8,0.3-2.6c0.3-0.8,0.7-1.6,1.3-2.2c0.5-0.6,1.2-1.1,1.9-1.5s1.6-0.6,2.4-0.6
			c0.8-0.1,1.7,0.1,2.5,0.3c0.8,0.3,1.5,0.7,2.2,1.3c0.6,0.6,1.1,1.3,1.5,2c0.4,0.8,0.6,1.6,0.6,2.6c0,0.8,0,1.5-0.2,2.2
			c-0.2,0.7-0.5,1.3-0.9,1.9c-0.5,0.8-1.3,1.5-2.1,2c-0.9,0.5-1.8,0.8-2.8,0.8c-0.8,0.1-1.7-0.1-2.4-0.3c-0.8-0.3-1.5-0.7-2.1-1.3
			c-0.7-0.6-1.2-1.3-1.5-2.1C237,269.8,236.7,269,236.7,268.1z M239.7,267.9c0.1,1.1,0.4,2,1.1,2.7c0.7,0.7,1.5,1,2.4,0.9
			c0.9-0.1,1.7-0.5,2.3-1.2c0.6-0.8,0.8-1.7,0.8-2.8c-0.1-1.1-0.4-2-1.1-2.7c-0.7-0.7-1.5-1-2.4-0.9c-0.9,0.1-1.7,0.5-2.3,1.2
			C239.9,265.8,239.7,266.8,239.7,267.9z"/>
		<path class="st0" d="M260.2,273.6l0.4-9.9l-4-0.2l0.1-2.6l10.9,0.4l-0.1,2.6l-3.9-0.2l-0.4,9.9L260.2,273.6z"/>
		<path class="st0" d="M266.9,273.8l7.7-12.1l0.2,0l4.9,13.4l-3.1-0.3l-0.6-1.9l-5-0.5l-1,1.7L266.9,273.8z M271.9,270.4l3.3,0.3
			l-1.2-4.1L271.9,270.4z M273.4,260.6l2.1-2.8l1.9,0.2l-2.8,2.7L273.4,260.6z"/>
		<path class="st0" d="M291.3,268.5c-0.4-0.6-0.9-1.1-1.4-1.5c-0.2-0.2-0.5-0.3-0.8-0.4c-0.3-0.1-0.6-0.2-0.9-0.3
			c-1-0.2-1.9,0-2.7,0.6c-0.8,0.6-1.3,1.5-1.5,2.6c-0.2,1.1,0,2.1,0.5,2.9c0.5,0.8,1.3,1.3,2.4,1.5c0.6,0.1,1.3,0.1,1.9-0.1
			c0.7-0.2,1.3-0.4,2-0.9l-0.7,3.2c-0.6,0.3-1.2,0.4-1.9,0.5s-1.3,0.1-2,0c-0.7-0.1-1.4-0.4-2-0.7c-0.6-0.3-1.2-0.8-1.7-1.3
			c-0.7-0.7-1.2-1.6-1.4-2.6c-0.3-1-0.3-2-0.1-3c0.2-0.9,0.5-1.7,0.9-2.5c0.4-0.7,1-1.4,1.7-1.9c0.7-0.5,1.5-0.9,2.3-1
			s1.7-0.2,2.6-0.1c0.7,0.1,1.3,0.3,1.9,0.6c0.6,0.3,1.1,0.7,1.7,1.2L291.3,268.5z"/>
		<path class="st0" d="M292.5,277.4l2.8-12.1l2.9,0.7l-1,4.5l4.7,1.1l1-4.5l2.8,0.7l-2.8,12.1l-2.8-0.7l1.2-5.1l-4.7-1.1l-1.2,5.1
			L292.5,277.4z"/>
		<path class="st0" d="M306,280.8l3.4-12l2.9,0.8l-3.4,12L306,280.8z"/>
		<path class="st0" d="M312.1,282.5l3.9-11.8l3,1c1,0.3,1.7,0.6,2.2,0.9c0.5,0.3,0.9,0.7,1.2,1.1c0.3,0.4,0.5,0.9,0.6,1.5
			c0.1,0.6,0.1,1.1-0.1,1.6c-0.2,0.7-0.7,1.3-1.2,1.8c-0.6,0.4-1.3,0.7-2.1,0.8l1.9,6.3l-3.2-1.1l-1.6-5.7l-0.4-0.1l-1.5,4.6
			L312.1,282.5z M318.5,273.9l-0.5-0.2l-1.1,3.3l0.6,0.2c0.7,0.2,1.3,0.3,1.8,0.1c0.5-0.2,0.8-0.5,1-1.1c0.2-0.6,0.1-1-0.1-1.4
			C319.9,274.5,319.3,274.2,318.5,273.9z"/>
		<path class="st0" d="M321.2,285.5l10.6-9.6l0.2,0.1l1.1,14.2l-2.9-1.1l-0.1-2l-4.7-1.9l-1.4,1.4L321.2,285.5z M327,283.6l3,1.2
			l-0.1-4.2L327,283.6z"/>
		<path class="st0" d="M339.3,293.1l5.5-11.2l7,3.4l-1.1,2.3l-4.3-2.1l-1.1,2.2l3.8,1.9l-1.1,2.3l-3.8-1.9l-2.2,4.4L339.3,293.1z"/>
		<path class="st0" d="M360.5,294.6c-0.2-0.7-0.5-1.4-0.8-1.9c-0.2-0.2-0.4-0.5-0.6-0.7c-0.2-0.2-0.5-0.4-0.7-0.5
			c-0.9-0.5-1.8-0.6-2.8-0.3c-0.9,0.3-1.7,0.9-2.3,1.9c-0.6,1-0.7,2-0.5,2.9c0.2,0.9,0.8,1.7,1.7,2.2c0.6,0.3,1.2,0.5,1.8,0.6
			c0.7,0.1,1.4,0,2.2-0.1l-1.8,2.8c-0.6,0.1-1.3,0-1.9-0.1c-0.6-0.1-1.3-0.4-1.9-0.7c-0.6-0.4-1.2-0.8-1.7-1.3s-0.8-1.1-1.1-1.8
			c-0.4-0.9-0.5-1.9-0.5-2.9c0.1-1,0.4-2,0.9-2.9c0.5-0.8,1-1.5,1.7-2c0.7-0.6,1.4-0.9,2.3-1.2c0.8-0.2,1.7-0.3,2.5-0.2
			c0.9,0.1,1.7,0.4,2.4,0.8c0.6,0.3,1.1,0.8,1.6,1.2c0.5,0.5,0.8,1,1.1,1.7L360.5,294.6z"/>
	</g>
</g>
</svg>
