<?xml version="1.0" encoding="utf-8"?>
<!-- Generator: Adobe Illustrator 22.1.0, SVG Export Plug-In . SVG Version: 6.00 Build 0)  -->
<svg version="1.1" id="Layer_1" xmlns="http://www.w3.org/2000/svg" xmlns:xlink="http://www.w3.org/1999/xlink" x="0px" y="0px"
	 viewBox="0 0 600 600" enable-background="new 0 0 600 600" xml:space="preserve">
<g>
	<path fill="#08183A" d="M2.677,129.071c3.404-4.691,6.653-9.219,9.955-13.708C32.185,88.772,51.807,62.23,71.243,35.554
		c2.509-3.443,5.276-4.626,9.44-4.641c38.351-0.135,76.702-0.637,115.053-0.7c108.871-0.18,217.742-0.19,326.613-0.355
		c2.963-0.004,4.761,0.79,6.534,3.245c21.493,29.75,43.117,59.405,64.705,89.087c0.505,0.695,0.998,1.401,1.459,2.125
		c2.766,4.341,3.65,3.442-1.047,7.255c-7.67,6.228-15.72,11.986-23.417,18.181c-9.809,7.895-18.927,16.551-26.171,26.921
		c-10.48,15.004-16.571,31.507-14.92,50.061c1.625,18.265,6.123,35.677,17.195,50.842c7.449,10.203,14.705,20.547,22.052,30.825
		c13.523,18.919,23.023,39.583,26.936,62.618c0.674,3.967,1.017,8.035,1.037,12.059c0.082,16.431-0.645,32.791-3.721,49.013
		c-6.476,34.144-25.258,58.937-55.927,75.045c-15.894,8.347-32.816,13.615-50.323,16.907c-18.636,3.504-37.401,6.325-56.122,9.37
		c-22.535,3.666-45.15,6.89-67.605,10.991c-17.346,3.167-33.653,9.574-48.657,18.984c-2.53,1.587-4.748,3.672-7.11,5.527
		c-1.749,1.374-3.599,1.835-5.33,0.117c-10.183-10.105-23.495-14.267-36.428-19.037c-15.632-5.766-32.054-8.297-48.422-10.818
		c-19.094-2.941-38.235-5.594-57.387-8.134c-18.226-2.418-36.358-5.281-54.151-9.994c-17.412-4.612-34.21-10.729-49.619-20.281
		C32.441,486.217,17.713,465.224,9.883,439c-3.076-10.303-4.629-20.804-4.566-31.498c0.07-11.939,0.22-23.897,0.959-35.808
		c0.947-15.263,5.759-29.552,13.786-42.471c8.335-13.415,17.446-26.352,26.346-39.411c7.064-10.365,14.703-20.429,18.881-32.407
		c6.235-17.874,9.156-36.122,4.469-54.915c-3.639-14.591-11.799-26.573-21.937-37.355c-12.514-13.308-27.228-23.901-42.266-34.086
		C4.702,130.472,3.859,129.884,2.677,129.071z M266.937,532.869c0-129.945,0-260.165,0-390.509c-19.112,0-38.25,0-57.544,0
		c0,126.082,0,252.031,0,377.665C228.55,524.301,247.6,528.553,266.937,532.869z M335.486,142.36c0,1.184-0.003,2.032,0,2.881
		c0.268,63.197,0.406,126.395,0.843,189.59c0.407,58.982,1.11,117.962,1.754,176.942c0.059,5.404,0.467,10.821,1.033,16.198
		c0.388,3.684,1.172,3.689,4.011,3.067c15.326-3.357,30.701-6.489,46.057-9.713c4.417-0.927,4.416-0.95,4.425-5.434
		c0.244-123.644,0.488-247.289,0.726-370.933c0.002-0.829-0.075-1.658-0.121-2.597C374.614,142.36,355.22,142.36,335.486,142.36z
		 M89.88,142.365c0,1.421,0,2.528,0,3.634c0.028,77.307-0.03,154.614,0.121,231.92c0.068,34.738,0.521,69.476,0.894,104.213
		c0.047,4.37,0.639,8.736,1.038,13.099c0.321,3.505,2.016,5.85,5.584,6.835c4.375,1.207,8.641,2.829,13.037,3.941
		c10.881,2.754,21.813,5.307,32.717,7.973c2.188,0.535,3.27-0.306,3.513-2.461c0.096-0.85,0.308-1.693,0.334-2.544
		c0.288-9.45,0.741-18.9,0.786-28.352c0.173-36.202,0.062-72.406,0.334-108.607c0.564-74.982,1.306-149.962,1.972-224.942
		c0.014-1.524,0.002-3.049,0.002-4.708C130.043,142.365,110.138,142.365,89.88,142.365z M453.192,514.554
		c2.875-0.604,5.488-1.065,8.056-1.707c13.63-3.409,27.244-6.881,40.874-10.29c4.044-1.011,6.802-3.095,7.097-7.593
		c0.118-1.798,0.528-3.58,0.584-5.377c0.381-12.115,0.985-24.231,1.001-36.348c0.132-102.67,0.153-205.34,0.207-308.01
		c0.001-0.916,0-1.832,0-2.846c-19.448,0-38.569,0-57.819,0C453.192,266.416,453.192,390.291,453.192,514.554z M174.449,67.129
		c9.509,0,18.77-0.046,28.031,0.031c2.417,0.02,3.307,1.557,3.399,3.934c0.051,1.331,0.427,3.116,1.339,3.858
		c2.35,1.912,8.684,0.033,10.004-2.666c2.901-5.934-0.789-13.909-7.293-14.475c-10.074-0.876-20.21-1.098-30.326-1.378
		c-3.326-0.092-6.683,0.399-10.006,0.794c-5.71,0.68-7.313,2.366-7.487,8.113c-0.172,5.669-0.187,11.346-0.129,17.019
		c0.066,6.525,0.113,13.059,0.507,19.569c0.241,3.978,1.809,5.317,5.864,5.819c3.406,0.421,6.844,0.912,10.26,0.861
		c9.955-0.148,19.92-0.336,29.855-0.936c6.288-0.38,8.732-3.277,9.279-9.562c0.074-0.855,0.071-1.717,0.089-2.577
		c0.108-5.34-0.197-5.738-5.341-7.013c-5.483-1.359-6.488-0.631-6.688,4.843c-0.138,3.779-0.699,4.544-4.562,4.638
		c-8.673,0.212-17.351,0.225-26.028,0.302c-0.226,0.002-0.455-0.188-0.766-0.326C174.449,87.764,174.449,77.553,174.449,67.129z
		 M266.58,108.848c3.842,0,7.185,0.08,10.519-0.063c0.736-0.032,1.705-0.689,2.11-1.342c1.761-2.843,3.437-5.747,4.97-8.718
		c0.726-1.408,1.605-1.969,3.187-1.953c9.709,0.097,19.419,0.072,29.127,0.221c0.859,0.013,2.019,0.783,2.498,1.542
		c1.831,2.898,3.394,5.964,5.172,8.898c0.375,0.62,1.219,1.325,1.869,1.347c3.749,0.128,7.504,0.062,11.59,0.062
		c-0.537-1.132-0.868-1.996-1.332-2.783c-8.448-14.344-16.9-28.686-25.384-43.008c-1.385-2.339-2.439-5.527-4.533-6.616
		c-2.243-1.166-5.541-0.213-8.367-0.381c-1.649-0.098-2.407,0.631-3.15,1.968c-5.006,8.998-10.128,17.932-15.143,26.925
		C275.376,92.729,271.129,100.561,266.58,108.848z M400.553,66.872c0,14.315,0,28.182,0,42.055c4.228,0,8.155,0,12.407,0
		c0-14.009,0-27.882,0-42.084c7.676,0,15.03,0,22.415,0c0-3.889,0-7.441,0-11c-19.854,0-39.504,0-59.213,0c0,3.706,0,7.246,0,11.029
		C384.327,66.872,392.21,66.872,400.553,66.872z M238.502,108.63c5.695,0,11.136,0,16.664,0c0-5.353,0-10.527,0-15.712
		c-5.654,0-11.106,0-16.664,0C238.502,98.194,238.502,103.312,238.502,108.63z M349.959,92.48c0,5.326,0,10.505,0,15.728
		c5.608,0,11.048,0,16.501,0c0-5.359,0-10.536,0-15.728C360.843,92.48,355.465,92.48,349.959,92.48z"/>
	<path fill="#FFFFFF" d="M266.937,532.869c-19.336-4.316-38.387-8.568-57.544-12.844c0-125.634,0-251.582,0-377.665
		c19.294,0,38.432,0,57.544,0C266.937,272.704,266.937,402.924,266.937,532.869z"/>
	<path fill="#FFFFFF" d="M335.486,142.36c19.734,0,39.128,0,58.728,0c0.045,0.939,0.122,1.768,0.121,2.597
		c-0.238,123.644-0.482,247.289-0.726,370.933c-0.009,4.484-0.007,4.506-4.425,5.434c-15.355,3.224-30.73,6.357-46.057,9.713
		c-2.839,0.622-3.623,0.617-4.011-3.067c-0.567-5.377-0.974-10.793-1.033-16.198c-0.644-58.98-1.346-117.96-1.754-176.942
		c-0.437-63.196-0.575-126.394-0.843-189.59C335.483,144.393,335.486,143.544,335.486,142.36z"/>
	<path fill="#FFFFFF" d="M89.88,142.365c20.258,0,40.164,0,60.334,0c0,1.659,0.012,3.184-0.002,4.708
		c-0.667,74.981-1.408,149.961-1.972,224.942c-0.272,36.201-0.161,72.405-0.334,108.607c-0.045,9.452-0.498,18.902-0.786,28.352
		c-0.026,0.851-0.238,1.694-0.334,2.544c-0.243,2.156-1.325,2.997-3.513,2.461c-10.904-2.667-21.836-5.219-32.717-7.973
		c-4.396-1.113-8.662-2.734-13.037-3.941c-3.568-0.984-5.263-3.329-5.584-6.835c-0.399-4.362-0.992-8.729-1.038-13.099
		c-0.373-34.737-0.826-69.475-0.894-104.213c-0.152-77.307-0.094-154.614-0.121-231.92C89.879,144.892,89.88,143.786,89.88,142.365z
		"/>
	<path fill="#FFFFFF" d="M453.192,514.554c0-124.264,0-248.138,0-372.171c19.25,0,38.371,0,57.819,0c0,1.014,0,1.93,0,2.846
		c-0.054,102.67-0.075,205.34-0.207,308.01c-0.016,12.117-0.619,24.233-1.001,36.348c-0.057,1.797-0.467,3.579-0.584,5.377
		c-0.294,4.498-3.053,6.581-7.097,7.593c-13.63,3.409-27.244,6.881-40.874,10.29C458.681,513.49,456.067,513.951,453.192,514.554z"
		/>
	<path fill="#FFFFFF" d="M174.449,67.129c0,10.424,0,20.635,0,30.85c0.311,0.138,0.54,0.328,0.766,0.326
		c8.676-0.077,17.354-0.09,26.028-0.302c3.862-0.095,4.423-0.859,4.562-4.638c0.2-5.475,1.205-6.202,6.688-4.843
		c5.143,1.275,5.448,1.673,5.341,7.013c-0.017,0.859-0.014,1.722-0.089,2.577c-0.546,6.284-2.991,9.182-9.279,9.562
		c-9.935,0.6-19.9,0.787-29.855,0.936c-3.416,0.051-6.854-0.44-10.26-0.861c-4.055-0.502-5.623-1.841-5.864-5.819
		c-0.394-6.51-0.441-13.044-0.507-19.569c-0.058-5.672-0.043-11.349,0.129-17.019c0.174-5.747,1.777-7.433,7.487-8.113
		c3.322-0.396,6.679-0.887,10.006-0.794c10.116,0.28,20.253,0.502,30.326,1.378c6.504,0.566,10.194,8.54,7.293,14.475
		c-1.319,2.699-7.654,4.578-10.004,2.666c-0.912-0.742-1.288-2.526-1.339-3.858c-0.091-2.377-0.981-3.914-3.399-3.934
		C193.219,67.083,183.958,67.129,174.449,67.129z"/>
	<path fill="#FFFFFF" d="M266.58,108.848c4.549-8.286,8.796-16.119,13.134-23.899c5.015-8.993,10.136-17.927,15.143-26.925
		c0.744-1.337,1.501-2.066,3.15-1.968c2.826,0.168,6.124-0.785,8.367,0.381c2.094,1.089,3.148,4.277,4.533,6.616
		c8.484,14.322,16.936,28.664,25.384,43.008c0.463,0.787,0.795,1.651,1.332,2.783c-4.085,0-7.841,0.066-11.59-0.062
		c-0.65-0.022-1.494-0.728-1.869-1.347c-1.777-2.934-3.34-6-5.172-8.898c-0.48-0.759-1.639-1.529-2.498-1.542
		c-9.708-0.149-19.418-0.124-29.127-0.221c-1.583-0.016-2.461,0.545-3.187,1.953c-1.533,2.971-3.209,5.875-4.97,8.718
		c-0.404,0.653-1.374,1.31-2.11,1.342C273.766,108.928,270.422,108.848,266.58,108.848z M312.984,87.608
		c-3.826-6.391-6.715-12.768-11.722-18.736c-3.93,6.525-7.509,12.467-11.285,18.736C297.935,87.608,305.214,87.608,312.984,87.608z"
		/>
	<path fill="#FFFFFF" d="M400.553,66.872c-8.343,0-16.226,0-24.391,0c0-3.784,0-7.323,0-11.029c19.71,0,39.359,0,59.213,0
		c0,3.559,0,7.111,0,11c-7.385,0-14.739,0-22.415,0c0,14.202,0,28.075,0,42.084c-4.253,0-8.179,0-12.407,0
		C400.553,95.054,400.553,81.186,400.553,66.872z"/>
	<path fill="#FFFFFF" d="M238.502,108.63c0-5.319,0-10.437,0-15.712c5.558,0,11.01,0,16.664,0c0,5.185,0,10.36,0,15.712
		C249.639,108.63,244.197,108.63,238.502,108.63z"/>
	<path fill="#FFFFFF" d="M349.959,92.48c5.506,0,10.884,0,16.501,0c0,5.192,0,10.369,0,15.728c-5.453,0-10.893,0-16.501,0
		C349.959,102.985,349.959,97.806,349.959,92.48z"/>
	<path d="M312.984,87.608c-7.77,0-15.049,0-23.007,0c3.776-6.269,7.355-12.211,11.285-18.736
		C306.269,74.839,309.158,81.216,312.984,87.608z"/>
</g>
</svg>
