<?xml version="1.0" encoding="UTF-8"?>
<svg id="Layer_1" data-name="Layer 1" xmlns="http://www.w3.org/2000/svg" viewBox="0 0 1000 1000">
  <defs>
    <style>
      .cls-1 {
        fill: #fdfdfd;
      }

      .cls-2 {
        fill: #0a539b;
      }
    </style>
  </defs>
  <path class="cls-2" d="M920.17,89c.35,17.52.19,35.07.46,52.6.63,39.88,2.36,79.75-.47,119.55-4.57,64.34-17.9,128-34.71,190.04-46.64,172.17-141.73,319.44-272.61,439.08-38.86,35.52-82.38,64.86-124.2,96.69-1.03.7-2.32.76-3.41.19-15.93-12.92-33.88-23.01-50.49-34.99-84.09-60.61-155.71-139.26-211.54-226.42-11.96-18.67-20.34-35.16-30.12-54.88-11.15-22.49-23.06-43.85-32.81-67.08-19.83-47.24-35.6-98.66-48.62-148.27-21.91-83.47-28.51-169.84-33.77-255.81l.02-108.79c11.08,3.17,21.33,8.73,32.63,11.3,44.08,10.01,85.05,3.84,125.67-14.58,29.31-13.29,53.73-32.79,69.06-61.55,12.32,12.69,22.23,28.12,35.29,40.1,38.46,35.26,97.49,56.02,149.61,53.08,36.28-2.04,80.66-19.84,110.34-40.45,18.55-12.88,33.84-28.77,51.54-42.61,2.01-.35,16.2,17.51,18.65,20.14,22,23.52,56.93,42.95,87.92,51.34,38.69,10.47,100.07,8.85,138-4.54,9.71-3.43,13.92-10.01,21.47-13.59.7-.33,1.23-.73,2.08-.56Z"/>
  <path class="cls-1" d="M114.4,247.48l377.19,398.58,395.92-420.19c-.09,3.44.13,6.91.02,10.34-1.84,62.76-13.09,129.78-28.97,190.5-38,145.35-107.77,270.11-208.5,380.73-5.39,5.92-10.51,9.82-16.1,15.11-20.08,19.01-38.42,39.66-59.53,57.64-24.13,20.55-52.72,43.46-78.61,61.61-1.82,1.28-7.86,5.85-9.65,5.54-3.06-.54-11.21-6.39-14.19-8.42-46.27-31.55-88.69-70.98-127.81-110.86-70.18-71.54-121.11-159.82-159.42-252.12-20.85-50.25-34.13-99.69-46.12-152.69-13.05-57.68-23.78-116.35-24.24-175.77Z"/>
  <path class="cls-1" d="M857.75,145.67l-366.15,384.17L131.21,139.43c1.56-.25,3.02.43,4.54.5,51.95,2.21,110.34-11.84,151.75-44.21,6.63-5.18,12.53-11.38,19.71-15.86.86,0,3.63,4.13,4.54,5.08,23.7,24.93,68.02,47.94,100.86,57.61,72.08,21.23,145.18,5.83,206.16-36.34,4.52-3.12,28.57-23.03,31.31-22.94,2.1.07,23.76,19.35,27.65,22.26,30.63,22.84,79.21,40.16,117.34,41.61,20.91.79,41.83-.64,62.69-1.46Z"/>
  <path class="cls-2" d="M671.91,528.41v36.26c0,.17-1.03,2.68-1.25,3.08-2.48,4.62-10.88,8.49-15.23,11.66-26.43,19.27-50.35,41.87-71.65,66.66-10.39,12.09-36.07,42.79-37.63,57.93-.82,7.9,1.41,10.73,9.67,9.19,5.68-1.06,18.37-14.47,22.69-19.09,20.78-22.23,39.15-48.43,62.17-68.45,14.05-12.21,30.09-22.92,49.59-15.49,19.77,7.54,18.41,27.44,15.58,45.13-9.1,56.91-58.58,116.7-97.81,156.71-20.17,20.58-40.89,37.39-63.66,54.95-11.57,8.92-23.62,19.04-37.2,24.51v-43.94c2.76-1.26,5.69-1.81,8.49-3.04,15.69-6.88,37.16-26.91,49.87-38.97,33.25-31.55,63.57-64.15,87.82-103.3,8.31-13.42,22.01-36.4,19.46-52.52-.41-2.62-2.9-3.94-5.38-3.53-4.57.77-15.44,12.87-18.85,16.7-26.24,29.39-48.14,67.91-82.58,88.86-22.47,13.67-52.94,3.63-58.14-23.03-6.28-32.17,13.62-60.11,32.25-84.02,27.12-34.81,62.2-67.03,96.97-94.16,10.59-8.26,22.13-17.57,34.79-22.11Z"/>
  <path class="cls-2" d="M442.38,818.47v-188.25c6.05,5.06,12.11,11.01,17.53,16.8,4.96,5.29,9.73,10.83,14.16,16.57v234.59c-10.49-5.21-20.03-13.59-29.04-21.14-69.7-58.44-128.53-124.8-174.17-203.76-20.11-34.79-36.26-66.99-49.51-105.12-6.31-18.17-12.69-37.33-14.27-56.56.35-.4,1.9.96,2.34,1.26,9.17,6.19,18.04,15.63,26.46,23,5.05,4.41,12.6,8.66,15.6,14.65,1.78,3.55,2.76,8.17,4.35,11.98,39.52,95.16,87.07,168.08,163.49,237.5,7.17,6.52,14.72,13.64,23.06,18.48Z"/>
  <path class="cls-2" d="M798.2,169.68l-186.56,195.93-27.56-29.43,56.13-59.4-90.76-.24v153.19c-11.51,13.9-23.98,27.15-37.46,39.14V169.68h286.2Z"/>
  <path class="cls-2" d="M463.02,209.54h-179.11c.7,2.3,2.78,4.57,4.33,6.47,19.09,23.44,42.93,44.36,63.62,66.52,12.65,13.54,24.08,28.06,36.48,41.79,25.04,27.73,53.05,53.76,77.33,82.11,2.17,2.54,8.12,8.86,8.43,11.74.8,7.57-.58,16.69-.13,24.42l-17.01,15.19L191.71,170.4h271.32s0,39.13,0,39.13Z"/>
  <path class="cls-1" d="M710.33,202.81l-3.59,4.81c-11.76,12.39-22.81,25.61-36.02,36.49h-121.25v-41.3h160.87Z"/>
</svg>